<?xml version="1.0" encoding="utf-8"?>
<!-- Generator: Adobe Illustrator 23.0.3, SVG Export Plug-In . SVG Version: 6.00 Build 0)  -->
<svg version="1.1" id="Capa_1" xmlns="http://www.w3.org/2000/svg" xmlns:xlink="http://www.w3.org/1999/xlink" x="0px" y="0px"
	 viewBox="0 0 1200 1200" enable-background="new 0 0 1200 1200" xml:space="preserve">
<g>
	<path fill="none" d="M97.999,275.863c1.122-6.989,2.835-13.468,5.432-19.464C100.833,262.395,99.121,268.874,97.999,275.863z"/>
	<path fill="none" d="M119.745,236.23c2.408-1.508,5.049-2.813,7.93-3.919C124.794,233.417,122.153,234.722,119.745,236.23z"/>
	<path fill="none" d="M174.215,231.392c2.524,0.72,5.034,1.519,7.53,2.41C179.249,232.911,176.739,232.111,174.215,231.392z"/>
	<path fill="none" d="M96.113,298.387c0.175-6.027,0.517-11.752,1.15-17.186C96.63,286.635,96.288,292.36,96.113,298.387z"/>
	<path fill="none" d="M88.53,455.329c0.258-5.566,0.612-11.121,1.033-16.679C89.141,444.208,88.788,449.763,88.53,455.329z"/>
	<path fill="none" d="M95.579,363.371c0.206-6.177,0.328-11.822,0.401-16.189C95.907,351.549,95.785,357.195,95.579,363.371z"/>
	<path fill="none" d="M400.714,317.01c6.732,4.023,13.207,8.125,18.791,13.539C413.92,325.134,407.445,321.033,400.714,317.01z"/>
	<path fill="none" d="M212.079,619.845c-0.361,2.112-0.747,4.372-1.163,6.791c-0.497,2.898-0.986,5.757-1.445,8.451
		c0.459-2.695,0.949-5.552,1.445-8.451C211.332,624.216,211.718,621.956,212.079,619.845z"/>
	<path fill="none" d="M185.964,235.38c2.205,0.861,4.406,1.783,6.608,2.73C190.371,237.163,188.169,236.24,185.964,235.38z"/>
	<path fill="none" d="M238.675,257.93c4.237,1.519,8.456,2.944,12.662,4.279C247.131,260.874,242.912,259.449,238.675,257.93z"/>
	<path fill="none" d="M256.599,263.852c5.621,1.706,11.238,3.31,16.886,4.84C267.838,267.162,262.22,265.557,256.599,263.852z"/>
	<path fill="none" d="M115.455,899.896c6.132,1.144,11.087,3.308,15.917,6.567C126.541,903.204,121.587,901.04,115.455,899.896z"/>
	<path fill="none" d="M145.143,918.154c0.085,0.082,0.17,0.162,0.255,0.245C145.313,918.316,145.229,918.236,145.143,918.154z"/>
	<path fill="none" d="M152.859,925.672L152.859,925.672c-0.41-0.401-0.801-0.783-1.202-1.175
		C152.058,924.889,152.449,925.271,152.859,925.672z"/>
	<path fill="none" d="M102.194,898.898c-3.168,0.038-6.628,0.223-10.443,0.55c-2.456,0.211-5.017,0.462-7.788,0.789c0,0,0,0,0.001,0
		c2.77-0.326,5.331-0.578,7.787-0.789C95.567,899.122,99.027,898.936,102.194,898.898z"/>
	<path fill="none" d="M138.676,912.171c0.231,0.203,0.462,0.402,0.696,0.61C139.139,912.573,138.907,912.374,138.676,912.171z"/>
	<path fill="none" d="M422.158,333.323c1.209,1.346,2.361,2.781,3.457,4.301C424.519,336.104,423.367,334.67,422.158,333.323z"/>
	<path fill="none" d="M133.37,876.226c-1.309-0.409-2.595-0.744-3.856-0.987C130.775,875.482,132.061,875.817,133.37,876.226z"/>
	<path fill="none" d="M373.686,1055.516c-2.936-1.345-5.944-3.055-8.991-4.975C367.742,1052.461,370.75,1054.172,373.686,1055.516z"
		/>
	<path fill="none" d="M144.592,797.163c6.899-7.72,13.646-15.804,19.874-24.654C158.237,781.36,151.491,789.443,144.592,797.163z"/>
	<path fill="none" d="M213.085,613.944c0.619-3.651,1.142-6.752,1.577-9.389C214.227,607.192,213.705,610.293,213.085,613.944z"/>
	<path fill="none" d="M186.243,933.345c-0.134-0.139-0.258-0.284-0.393-0.424C185.985,933.061,186.108,933.206,186.243,933.345z"/>
	<path fill="none" d="M442.436,945.366c0.577,5.689,0.989,11.413,1.216,17.097C443.425,956.779,443.013,951.055,442.436,945.366z"/>
	<path fill="none" d="M103.239,752.251c4.142,15.748,9.906,24.166,17.192,25.067c0.708,0.087,1.426,0.105,2.153,0.057
		c-0.727,0.048-1.445,0.03-2.152-0.057C113.145,776.416,107.382,767.999,103.239,752.251z"/>
	<path fill="none" d="M103.093,569.765c-0.556-1.844-1.113-3.712-1.67-5.579C101.98,566.053,102.537,567.921,103.093,569.765
		c7.482,24.787,14.552,48.202,11.413,75.405c-0.211,1.836-0.524,3.63-0.803,5.438c0.28-1.808,0.592-3.602,0.803-5.438
		C117.645,617.967,110.575,594.553,103.093,569.765z"/>
	<path fill="none" d="M106.916,680.908c0.039-0.151,0.078-0.3,0.117-0.451c2.533-9.605,5.073-19.518,6.67-29.849
		c-1.597,10.331-4.137,20.243-6.67,29.849c-0.039,0.151-0.078,0.3-0.118,0.451c-5.177,19.656-10.009,38.258-6.284,59.271
		c0.781,4.413,1.652,8.438,2.608,12.072c-0.957-3.634-1.826-7.659-2.608-12.071C96.908,719.165,101.739,700.564,106.916,680.908z"/>
	<path fill="none" d="M440.417,408.875c0.009,0.303,0.026,0.602,0.034,0.906C440.443,409.478,440.425,409.179,440.417,408.875z"/>
	<path fill="none" d="M95.205,372.942c-0.371,8.152-0.897,16.549-1.644,23.733c-1.471,14.164-2.945,28.08-3.998,41.976
		c1.053-13.896,2.527-27.811,3.998-41.976C94.307,389.491,94.834,381.093,95.205,372.942z"/>
	<path fill="none" d="M96.113,298.387c-0.349,12.054-0.028,25.317-0.028,39.879c0,0-0.013,3.459-0.105,8.917
		c0.092-5.458,0.105-8.917,0.105-8.917C96.085,323.704,95.764,310.442,96.113,298.387z"/>
	<path fill="none" d="M216.537,589.518c0.088,0.325,0.117,0.831,0.057,1.728C216.654,590.35,216.625,589.843,216.537,589.518z"/>
	<path fill="none" d="M216.594,591.247c-0.039,0.598-0.119,1.369-0.247,2.375c-0.286,2.245-0.813,5.66-1.684,10.933
		c0.871-5.273,1.399-8.688,1.684-10.933C216.475,592.616,216.555,591.845,216.594,591.247z"/>
	<path fill="none" d="M215.494,588.391c0.218,0.146,0.436,0.294,0.637,0.491c0.058,0.056,0.113,0.109,0.163,0.168
		c-0.05-0.058-0.105-0.111-0.162-0.168C215.93,588.686,215.712,588.537,215.494,588.391z"/>
	<path fill="none" d="M213.458,587.754c0.038-0.001,0.074,0.013,0.113,0.013C213.533,587.767,213.497,587.753,213.458,587.754z"/>
	<path fill="none" d="M88.53,455.329c-1.166,25.048-0.414,50.327,4.731,77.165c1.828,9.541,4.372,18.816,7.039,27.881
		c-2.667-9.064-5.212-18.34-7.039-27.881C88.116,505.656,87.364,480.378,88.53,455.329z"/>
	<path fill="none" d="M432.738,874.611c0.444,6.453,0.951,12.492,1.523,17.979C433.689,887.103,433.182,881.064,432.738,874.611z"/>
	<path fill="none" d="M430.041,805.284c0.002,0.071,0.003,0.141,0.004,0.211C430.045,805.425,430.044,805.355,430.041,805.284z"/>
	<path fill="none" d="M119.745,236.23c-4.814,3.016-8.698,6.847-11.718,11.534c-1.777,2.76-3.298,5.637-4.597,8.635
		c1.299-2.998,2.819-5.875,4.597-8.635C111.048,243.077,114.931,239.246,119.745,236.23z"/>
	<path fill="none" d="M429.781,788.943c0.024,1.835,0.05,3.685,0.078,5.547C429.831,792.628,429.805,790.778,429.781,788.943z"/>
	<path fill="none" d="M429.523,754.354c0.018,7.387,0.059,15.548,0.142,24.177C429.582,769.903,429.54,761.741,429.523,754.354z"/>
	<path fill="none" d="M432.114,864.646c0.194,3.409,0.401,6.739,0.624,9.965C432.515,871.384,432.308,868.054,432.114,864.646z"/>
	<path fill="none" d="M107.016,898.972c2.589,0.109,4.965,0.345,7.189,0.701C111.983,899.317,109.605,899.081,107.016,898.972z"/>
	<path fill="none" d="M436.58,366.67c-0.672-3.645-1.453-7.181-2.373-10.573c-1.801-6.652-4.333-12.078-7.373-16.693
		c3.04,4.615,5.572,10.042,7.373,16.694C435.126,359.489,435.908,363.025,436.58,366.67z"/>
	<path fill="none" d="M215.775,248.709c5.309,2.409,10.533,4.54,15.723,6.543C226.308,253.25,221.084,251.118,215.775,248.709
		c-2.931-1.33-5.839-2.685-8.73-4.034c-3.622-1.689-7.21-3.354-10.79-4.952c3.58,1.598,7.169,3.264,10.79,4.953
		C209.936,246.024,212.844,247.379,215.775,248.709z"/>
	<path fill="none" d="M429.514,745.909c0-0.001,0-0.001,0-0.002C429.514,745.907,429.514,745.908,429.514,745.909z"/>
	<path fill="none" d="M386.323,308.159c2.167,1.444,4.346,2.84,6.533,4.166C390.669,310.999,388.49,309.603,386.323,308.159z"/>
	<path fill="none" d="M800.867,170.869c0,0.002,0,0.004,0,0.006C800.867,170.873,800.867,170.872,800.867,170.869z"/>
	<path fill="none" d="M396.221,263.322c-0.372-0.027-0.744-0.056-1.116-0.083C395.475,263.266,395.849,263.294,396.221,263.322z"/>
	<path fill="none" d="M800.759,159.523c0.003,0.095,0.005,0.189,0.008,0.284C800.765,159.712,800.762,159.618,800.759,159.523z"/>
	<path fill="none" d="M728.497,121.409c5.756-1.453,11.589-2.882,17.302-4.109C740.087,118.526,734.253,119.956,728.497,121.409z"/>
	<path fill="none" d="M777.073,113.822c4.451,0.307,8.39,1.176,11.622,2.788C785.463,114.998,781.524,114.129,777.073,113.822z"/>
	<path fill="none" d="M410.733,264.351c0.182,0.013,0.362,0.025,0.545,0.038c0.376,0.026,0.769,0.055,1.147,0.081
		c-0.378-0.026-0.77-0.055-1.147-0.081C411.096,264.376,410.915,264.363,410.733,264.351z"/>
	<path fill="none" d="M777.073,113.822c-8.901-0.613-19.849,1.026-31.274,3.478C757.224,114.848,768.172,113.209,777.073,113.822z"
		/>
	<path fill="none" d="M728.497,121.409c-1.919,0.484-3.829,0.971-5.724,1.454c-7.097,1.811-13.999,3.572-20.388,4.955
		c6.389-1.383,13.291-3.144,20.39-4.955C724.668,122.38,726.579,121.893,728.497,121.409z"/>
	<path fill="none" d="M218,210.918c4.585,2.269,9.129,4.56,13.633,6.832c9.282,4.679,18.735,9.435,28.358,13.902
		c-9.623-4.468-19.076-9.223-28.358-13.902C227.129,215.478,222.585,213.187,218,210.918z"/>
	<path fill="none" d="M685.064,130.509c2.526-0.151,5.259-0.478,8.158-0.94C690.323,130.031,687.59,130.358,685.064,130.509z"/>
	<path fill="none" d="M380.783,262.081c-8.277-0.732-16.527-1.598-24.8-2.696C364.255,260.483,372.505,261.349,380.783,262.081z"/>
	<path fill="none" d="M999.833,174.57c-20.837-13.024-42.508-24.398-68.38-31.664c-8.503-2.388-18.506-3.89-29.232-5.196
		c10.726,1.306,20.729,2.808,29.232,5.197C957.324,150.172,978.996,161.546,999.833,174.57z"/>
	<path fill="none" d="M289.909,149.889c8.402,0.313,16.694,0.682,24.748,1.092C306.602,150.571,298.311,150.203,289.909,149.889z"/>
	<path fill="none" d="M789.363,255L789.363,255c0.015-1.097,0.123-2.189,0.309-3.275C789.485,252.811,789.378,253.903,789.363,255z"
		/>
	<path fill="none" d="M1048.809,207.082c-4.195-2.773-8.294-5.533-12.36-8.281C1040.515,201.55,1044.614,204.31,1048.809,207.082
		L1048.809,207.082z"/>
	<path fill="none" d="M843.021,128.672c4.782,1.287,9.75,2.371,14.867,3.284C852.772,131.043,847.803,129.959,843.021,128.672z"/>
	<path fill="none" d="M1014.758,184.198c2.549,1.694,5.11,3.395,7.664,5.118C1019.868,187.593,1017.307,185.892,1014.758,184.198z"
		/>
	<path fill="none" d="M789.672,251.725c0.372-2.173,1.062-4.325,1.973-6.458C790.733,247.4,790.044,249.552,789.672,251.725z"/>
	<path fill="none" d="M813.111,204.125c0.228-10.126,1.138-20.848,2.024-31.217c1.58-18.569,3.208-37.727,1.274-55.828
		c3.568,2.527,7.599,4.589,11.831,6.445c-4.232-1.856-8.263-3.919-11.832-6.445c1.934,18.1,0.307,37.259-1.274,55.828
		c-0.884,10.369-1.795,21.091-2.024,31.217v0.003c-0.108,4.455-1.648,8.789-3.881,13.029c2.233-4.24,3.773-8.574,3.882-13.029
		V204.125z"/>
	<path fill="none" d="M801.203,229.617c2.873-4.075,5.796-8.22,8.027-12.46C806.999,221.397,804.076,225.541,801.203,229.617
		c-2.882,4.086-5.81,8.238-8.033,12.465C795.392,237.855,798.321,233.703,801.203,229.617z"/>
	<path fill="none" d="M598.11,126.026c-34.75-3.508-68.026-6.14-103.063,1.994C530.083,119.886,563.36,122.518,598.11,126.026z"/>
	<path fill="none" d="M477.25,725.033c0.763,2.051,1.522,4.109,2.264,6.144C478.773,729.142,478.013,727.084,477.25,725.033z"/>
	<path fill="none" d="M446.994,825.707L446.994,825.707c-0.003-0.051-0.008-0.1-0.011-0.151
		C446.987,825.607,446.991,825.656,446.994,825.707z"/>
	<path fill="none" d="M455.856,731.752c3.499-9.665,8.118-18.313,14.124-25.51l-0.001,0
		C463.974,713.439,459.355,722.087,455.856,731.752z"/>
	<path fill="none" d="M495.047,128.02c-2.502,0.581-5.014,1.217-7.535,1.911c-27.89,7.682-60.847,15.962-92.293,20.121
		c31.447-4.159,64.404-12.439,92.293-20.121C490.033,129.237,492.545,128.601,495.047,128.02z"/>
	<path fill="none" d="M458.594,386.125c0.005-1.528,0.046-3.035,0.128-4.517C458.64,383.09,458.6,384.597,458.594,386.125z"/>
	<path fill="none" d="M458.722,381.608c0.734-13.336,4.802-24.635,16.534-30.939l0.001,0
		C463.525,356.973,459.457,368.272,458.722,381.608z"/>
	<path fill="none" d="M446.213,797.8c0.037-5.53,0.204-11.022,0.524-16.435C446.416,786.779,446.25,792.271,446.213,797.8z"/>
	<path fill="none" d="M486.723,762.534c0.001,0.03,0.002,0.061,0.003,0.091C486.725,762.595,486.724,762.564,486.723,762.534
		c-0.115-4.047-0.237-8.232-0.851-12.409c-0.079-0.538-0.395-1.664-0.86-3.153c0.465,1.488,0.781,2.615,0.86,3.153
		C486.485,754.302,486.608,758.488,486.723,762.534z"/>
	<path fill="none" d="M510.283,807.759c0.259,1.244,0.399,2.585,0.432,4.011C510.682,810.343,510.542,809.003,510.283,807.759
		c-0.686-3.284-5.03-6.961-9.232-10.516c-1.074-0.908-2.149-1.827-3.196-2.755c1.046,0.928,2.122,1.847,3.196,2.755
		C505.253,800.798,509.597,804.474,510.283,807.759z"/>
	<path fill="none" d="M455.856,731.752c-2.099,5.799-3.796,11.964-5.147,18.402c-2.073,9.871-3.33,20.383-3.972,31.21
		c0.641-10.827,1.899-21.339,3.972-31.21C452.06,743.717,453.757,737.552,455.856,731.752z"/>
	<path fill="none" d="M446.213,797.8c-0.038,5.53,0.054,11.097,0.25,16.661c0.13,3.704,0.306,7.407,0.521,11.095
		c-0.215-3.688-0.39-7.391-0.521-11.095C446.266,808.897,446.175,803.33,446.213,797.8z"/>
	<path fill="none" d="M459.842,405.215c0.363,3.264,0.772,6.547,1.179,9.817c0.175,1.394,0.35,2.802,0.522,4.211
		c0,0,0-0.001,0-0.001c-0.172-1.409-0.347-2.816-0.521-4.211C460.615,411.762,460.205,408.479,459.842,405.215z"/>
	<path fill="none" d="M458.884,315.761c-5.864-0.522-11.54-1.954-16.968-4.526C447.345,313.807,453.02,315.239,458.884,315.761z"/>
	<path fill="none" d="M110.342,174.603c-2.873,0.221-5.749,0.332-8.625,0.334c0,0,0,0,0.001,0
		C104.593,174.935,107.47,174.824,110.342,174.603z"/>
	<path fill="none" d="M166.943,159.864c14.493-5.387,28.183-10.476,44.426-10.849c24.092-0.548,51.327-0.127,77.582,0.838
		c-26.255-0.965-53.49-1.386-77.582-0.838C195.126,149.388,181.436,154.477,166.943,159.864c-9.78,3.634-19.897,7.393-31.079,9.72
		c-5.559,1.797-11.219,3.133-16.929,4.021c5.71-0.888,11.371-2.224,16.929-4.021C147.046,167.258,157.163,163.498,166.943,159.864z"
		/>
	<path fill="none" d="M386.684,151.081c-8.486,0.919-16.815,1.5-24.855,1.647C369.869,152.581,378.197,152,386.684,151.081z"/>
	<path fill="none" d="M455.437,292.648c3.093-0.454,6.409-1.067,10.004-1.858C461.846,291.581,458.53,292.194,455.437,292.648z"/>
	<path fill="none" d="M471.048,289.47c20.571-5.143,38.639-9.425,56.384-12.184C509.687,280.045,491.619,284.326,471.048,289.47z"/>
	<path fill="none" d="M459.842,405.215c-0.544-4.896-0.986-9.747-1.163-14.446C458.856,395.467,459.298,400.319,459.842,405.215z"/>
	<path fill="none" d="M450.962,293.212c-4.321,0.449-8.194,0.559-11.8,0.392C442.768,293.771,446.641,293.661,450.962,293.212z"/>
	<path fill="none" d="M427.519,302.157c2.981,2.105,6.002,4.168,9.052,6.116c1.752,1.12,3.535,2.104,5.345,2.962
		c-1.81-0.857-3.592-1.842-5.345-2.962C433.522,306.326,430.5,304.262,427.519,302.157z"/>
	<path fill="none" d="M527.432,277.286c13.308-2.07,26.435-3.283,40.297-3.361C553.867,274.003,540.74,275.216,527.432,277.286z"/>
	<path fill="none" d="M438.462,918.63c0.199,1.019,0.395,2.039,0.584,3.069C438.857,920.669,438.661,919.649,438.462,918.63z"/>
	<path fill="none" d="M1022.187,281.91c1.613-0.105,3.18-0.234,4.708-0.386C1025.37,281.676,1023.798,281.804,1022.187,281.91z"/>
	<path fill="none" d="M1017.185,282.165c-3.382,0.127-6.895,0.173-10.49,0.157C1010.293,282.34,1013.8,282.291,1017.185,282.165z"/>
	<path fill="none" d="M1035.535,280.281c1.312-0.259,2.562-0.547,3.75-0.865C1038.097,279.734,1036.845,280.022,1035.535,280.281z"
		/>
	<path fill="none" d="M1026.933,281.52c1.522-0.152,2.995-0.33,4.421-0.532C1029.929,281.191,1028.454,281.368,1026.933,281.52z"/>
	<path fill="none" d="M1031.393,280.982c1.423-0.203,2.79-0.434,4.101-0.692C1034.184,280.548,1032.813,280.779,1031.393,280.982z"
		/>
	<path fill="none" d="M1043.224,277.135c-0.182,0.412-0.363,0.806-0.545,1.218c-1.053,0.385-2.18,0.736-3.371,1.057
		c2.078-0.559,4.007-1.189,5.651-1.949C1044.36,277.352,1043.814,277.243,1043.224,277.135z"/>
	<path fill="none" d="M801.323,373.723c-0.801,3.143-1.541,5.96-2.226,8.485c-1.126,4.151-2.104,7.511-2.959,10.226
		c0.856-2.715,1.833-6.075,2.959-10.226C799.782,379.682,800.522,376.866,801.323,373.723z"/>
	<path fill="none" d="M804.618,360.44c0.396-1.192,2.264-5.387,4.379-9.888C806.883,355.054,805.013,359.248,804.618,360.44
		c-0.066,0.219-0.314,1.251-0.699,2.838c-0.931,3.831-1.795,7.301-2.596,10.444c0.801-3.143,1.665-6.613,2.596-10.443
		C804.305,361.691,804.553,360.66,804.618,360.44z"/>
	<path fill="none" d="M938.074,279.053c0.611-0.024,1.289-0.034,2.029-0.033C939.363,279.019,938.685,279.03,938.074,279.053
		c-21.15,0.822-13.556-0.101-35.253,3.213c-20.13,3.074-22.645,3.458-38.698,13.232c16.053-9.774,18.569-10.158,38.698-13.232
		C924.519,278.952,916.925,279.875,938.074,279.053z"/>
	<path fill="none" d="M842.393,310.283c-7.917,6.616-16.381,15.255-26.628,27.12c-0.718,0.832-2.769,4.824-4.924,9.28
		c2.155-4.456,4.206-8.448,4.924-9.28C826.013,325.538,834.476,316.899,842.393,310.283z"/>
	<path fill="none" d="M1001.186,282.252c-12.836-0.264-26.341-1.188-38.285-2.01c-5.279-0.364-10.191-0.703-14.408-0.931
		c4.218,0.228,9.13,0.567,14.408,0.931C974.842,281.064,988.344,281.983,1001.186,282.252z"/>
	<path fill="none" d="M1001.247,282.253c1.83,0.038,3.64,0.06,5.435,0.069C1004.889,282.314,1003.075,282.291,1001.247,282.253z"/>
	<path fill="none" d="M464.189,599.688c-0.338-3.938-0.627-7.953-0.877-11.991C463.562,591.735,463.851,595.75,464.189,599.688z"/>
	<path fill="none" d="M465.115,478.872c0.989-5.888,2.218-11.847,3.733-17.786C467.333,467.025,466.104,472.984,465.115,478.872z"/>
	<path fill="none" d="M504.862,702.218c-1.644-4.399-3.611-8.569-5.741-12.604C501.251,693.649,503.218,697.818,504.862,702.218z"/>
	<path fill="none" d="M580.453,305.635c15.823-3.077,33.679-4.907,53.452-5.474C614.132,300.728,596.277,302.559,580.453,305.635z"
		/>
	<path fill="none" d="M513.147,882.141c0.523-2.155,1.06-4.384,1.624-6.76C514.207,877.756,513.67,879.985,513.147,882.141z"/>
	<path fill="none" d="M847.088,306.546c3.099-2.342,6.151-4.4,9.235-6.249C853.239,302.147,850.188,304.204,847.088,306.546z"/>
	<path fill="none" d="M796.183,300.975c1.916,1.173,3.66,2.635,5.199,4.435C799.843,303.61,798.1,302.148,796.183,300.975z"/>
	<path fill="none" d="M794.578,397.05c-1.651,4.487-2.748,6.005-3.65,6.44C791.83,403.055,792.926,401.537,794.578,397.05z"/>
	<path fill="none" d="M1017.215,282.164c1.688-0.063,3.337-0.148,4.951-0.253C1020.553,282.017,1018.901,282.101,1017.215,282.164z"
		/>
	<path fill="none" d="M794.578,397.05c0.472-1.282,0.988-2.806,1.56-4.616C795.566,394.244,795.05,395.768,794.578,397.05z"/>
	<path fill="none" d="M808.997,350.553c0.604-1.286,1.228-2.597,1.844-3.87C810.225,347.956,809.601,349.266,808.997,350.553z"/>
	<path fill="none" d="M529.865,820.51h0.001c0.292-1.916,0.546-3.839,0.71-5.781C530.412,816.671,530.158,818.594,529.865,820.51z"
		/>
	<path fill="none" d="M499.797,925.246c-0.437,0.407-0.79,0.5-1.114,0.584c0.001,0,0.001,0,0.002,0
		C499.007,925.747,499.361,925.653,499.797,925.246z"/>
	<path fill="none" d="M500.503,924.382c-0.253,0.378-0.483,0.654-0.693,0.852C500.02,925.036,500.25,924.759,500.503,924.382z"/>
	<path fill="none" d="M496.554,925.193c-0.501-0.544-0.907-1.136-1.356-1.706c0.443,0.564,0.836,1.152,1.331,1.69
		C496.536,925.184,496.546,925.185,496.554,925.193z"/>
	<path fill="none" d="M527.151,785.229c-4.492-14.051-7.948-28.369-11.288-42.216c-2.352-9.757-4.846-19.821-7.663-29.952
		c2.817,10.131,5.311,20.195,7.663,29.952C519.204,756.86,522.66,771.178,527.151,785.229c3.419,10.694,4.203,20.284,3.424,29.5
		C531.354,805.513,530.572,795.923,527.151,785.229z"/>
	<path fill="none" d="M522.112,849.973c0.133-0.418,0.264-0.828,0.396-1.245l0,0C522.375,849.144,522.245,849.555,522.112,849.973
		c-2.258,7.073-4.591,14.39-6.62,22.407c-0.116,0.465-0.367,1.515-0.72,3c0.354-1.485,0.604-2.535,0.72-3
		C517.52,864.364,519.854,857.046,522.112,849.973z"/>
	<path fill="none" d="M1032.298,290.003c0.038,0.088,0.078,0.186,0.117,0.274c-0.03-0.078-0.059-0.166-0.098-0.254L1032.298,290.003
		z"/>
	<path fill="none" d="M504.862,702.218c0.617,1.655,1.193,3.341,1.717,5.06c0.082,0.268,0.173,0.53,0.259,0.795
		c-0.086-0.265-0.177-0.527-0.259-0.795C506.055,705.558,505.479,703.873,504.862,702.218z"/>
	<path fill="none" d="M452.16,878.291c0.827,6.482,1.661,12.663,2.442,18.445c0.259,1.927,0.511,3.787,0.757,5.622
		c-0.246-1.835-0.498-3.696-0.757-5.622C453.821,890.954,452.987,884.773,452.16,878.291z"/>
	<path fill="none" d="M488.484,901.24c0.004-0.781,0.067-1.586,0.102-2.38C488.55,899.654,488.488,900.459,488.484,901.24z"/>
	<path fill="none" d="M456.391,910.296c1.359,10.859,2.05,22.784,2.765,35.41c1.784,31.432,3.732,65.746,17.001,90.595
		c-13.269-24.849-15.217-59.163-17-90.595C458.441,933.081,457.75,921.156,456.391,910.296z"/>
	<path fill="none" d="M789.153,298.093c-5.402-1.405-11.579-1.504-18.144-0.894C777.573,296.589,783.751,296.688,789.153,298.093z"
		/>
	<path fill="none" d="M516.682,333.145c14.615-12.925,36.081-22.126,63.771-27.509C552.763,311.019,531.297,320.219,516.682,333.145
		c-6.922,6.121-12.367,13.123-16.316,20.961C504.315,346.267,509.76,339.266,516.682,333.145z"/>
	<path fill="none" d="M664.703,300.254c-10.726-0.341-21-0.375-30.799-0.093C643.703,299.88,653.978,299.913,664.703,300.254z"/>
	<path fill="none" d="M482.614,662.556c1.677,2.715,3.416,5.429,5.181,8.18c0.324,0.505,0.649,1.016,0.974,1.523
		c-0.325-0.507-0.65-1.018-0.974-1.523C486.031,667.985,484.291,665.271,482.614,662.556z"/>
	<path fill="none" d="M790.928,403.49c-0.387,0.186-0.739,0.173-1.083,0.109C790.189,403.663,790.54,403.676,790.928,403.49z"/>
	<path fill="none" d="M787.395,402.69c-1.077-0.596-1.958-1.437-2.633-2.521C785.436,401.253,786.318,402.094,787.395,402.69z"/>
	<path fill="none" d="M749.628,300.588c7.212-1.367,14.5-2.75,21.381-3.389C764.128,297.837,756.84,299.22,749.628,300.588
		c-11.88,2.255-23.085,4.378-32.584,3.415C726.543,304.966,737.749,302.843,749.628,300.588z"/>
	<path fill="none" d="M500.366,354.106c-3.949,7.839-6.4,16.514-7.336,25.981l-18.734,63.325l18.735-63.325
		C493.966,370.62,496.417,361.944,500.366,354.106z"/>
	<path fill="none" d="M461.484,533.752l0.178,7.953c0.291,13.33,0.652,29.841,1.65,45.992c-0.998-16.151-1.359-32.661-1.65-45.992
		L461.484,533.752z"/>
	<path fill="none" d="M468.778,631.534c-1.063-4.46-1.957-9.468-2.712-14.838C466.821,622.066,467.715,627.073,468.778,631.534
		c0.402,1.682,0.823,3.298,1.274,4.814c0.316,1.066,0.687,2.099,1.047,3.138c-0.36-1.039-0.731-2.072-1.047-3.138
		C469.601,634.831,469.18,633.216,468.778,631.534z"/>
	<path fill="none" d="M463.805,487.641c-1.144,8.695-1.801,17.134-2.133,25.017c-0.16,3.82-0.246,7.513-0.273,11.042
		c0.026-3.528,0.113-7.222,0.274-11.042C462.004,504.775,462.661,496.336,463.805,487.641z"/>
	<path fill="none" d="M488.944,894.229c-0.084,0.766-0.195,1.542-0.255,2.298C488.75,895.771,488.859,894.994,488.944,894.229z"/>
	<path fill="none" d="M452.16,878.291c-0.828-6.482-1.65-13.265-2.408-20.252C450.51,865.025,451.332,871.809,452.16,878.291z"/>
	<path fill="none" d="M524.667,1092.388c-2.351-0.929-4.668-1.877-6.962-2.816c-4.712-1.927-9.339-3.796-13.998-5.422
		c4.659,1.626,9.286,3.495,13.998,5.422C519.999,1090.511,522.316,1091.459,524.667,1092.388z"/>
	<path fill="none" d="M484.585,1048.843c-3.229-3.818-6.015-8.023-8.428-12.541C478.57,1040.82,481.357,1045.025,484.585,1048.843z"
		/>
	<path fill="none" d="M474.016,1079.489c1.997-0.158,3.955-0.211,5.88-0.17C477.971,1079.278,476.013,1079.33,474.016,1079.489
		c-0.216,0.585-0.138,1.024-0.017,1.384C473.878,1080.513,473.801,1080.074,474.016,1079.489z"/>
	<path fill="none" d="M504.665,1093.833c9.027,0.898,18.18,1.304,27.166,1.254l0,0
		C522.844,1095.137,513.692,1094.731,504.665,1093.833z"/>
	<path fill="none" d="M490.599,884.235c-0.178,0.827-0.375,1.661-0.534,2.482C490.224,885.897,490.421,885.063,490.599,884.235z"/>
	<path fill="none" d="M493.145,874.157c-0.228,0.796-0.468,1.594-0.684,2.387C492.676,875.75,492.917,874.952,493.145,874.157z"/>
	<path fill="none" d="M494.517,869.528c-0.19,0.621-0.393,1.242-0.58,1.863C494.124,870.77,494.327,870.149,494.517,869.528z"/>
	<path fill="none" d="M491.718,879.458c-0.186,0.733-0.389,1.471-0.56,2.201C491.329,880.929,491.532,880.191,491.718,879.458z"/>
	<path fill="none" d="M486.538,1088.619c-2.675-0.958-4.785-1.861-6.483-2.71C481.753,1086.758,483.863,1087.661,486.538,1088.619z"
		/>
	<path fill="none" d="M122.351,874.609c0.014,0,0.03,0.001,0.044,0.001C122.381,874.61,122.366,874.609,122.351,874.609z"/>
	<path fill="none" d="M201.329,685.563c-0.208,0.897-0.468,1.795-0.686,2.691v0C200.86,687.357,201.121,686.459,201.329,685.563z"/>
	<path fill="none" d="M137.654,804.777c-2.32,2.507-4.644,4.989-6.958,7.461c-19.424,20.741-37.794,40.359-49.475,68.761l0,0
		c11.681-28.401,30.052-48.02,49.475-68.761C133.01,809.766,135.334,807.284,137.654,804.777z"/>
	<path fill="none" d="M146.992,883.261c0.12,0.081,0.241,0.159,0.366,0.249c0.48,0.347,0.929,0.749,1.397,1.12
		c-0.467-0.371-0.915-0.772-1.397-1.12C147.232,883.42,147.112,883.342,146.992,883.261z"/>
	<path fill="none" d="M190.375,721.152L190.375,721.152c-2.687,7.103-5.689,14.402-9.138,22.102
		c-4.831,10.787-10.543,20.405-16.772,29.256c6.23-8.851,11.941-18.468,16.772-29.255
		C184.687,735.553,187.689,728.254,190.375,721.152z"/>
	<path fill="none" d="M443.851,970.948c-0.018-2.812-0.085-5.643-0.199-8.485C443.766,965.305,443.834,968.137,443.851,970.948z"/>
	<path fill="none" d="M151.995,887.47c5.75,5.547,10.479,12.723,14.987,19.935C162.475,900.193,157.746,893.017,151.995,887.47z"/>
	<path fill="none" d="M498.653,1092.276c-2.465-0.643-4.692-1.27-6.703-1.88C493.961,1091.005,496.188,1091.632,498.653,1092.276z"
		/>
	<path fill="none" d="M497.403,925.735c0.048,0.018,0.084,0.064,0.134,0.079C497.486,925.801,497.453,925.753,497.403,925.735z"/>
	<path fill="none" d="M500.547,924.319c0.27-0.412,0.568-0.944,0.9-1.635C501.115,923.375,500.817,923.907,500.547,924.319z"/>
	<path fill="none" d="M492.839,919.982c0.356,0.627,0.67,1.273,1.075,1.875C493.509,921.255,493.195,920.608,492.839,919.982z"/>
	<path fill="none" d="M501.449,922.676c1.195-2.491,2.839-7.071,5.236-15.528C504.288,915.605,502.645,920.184,501.449,922.676z"/>
	<path fill="none" d="M506.992,906.056c1.329-4.746,2.878-10.637,4.704-17.988C509.87,895.42,508.32,901.31,506.992,906.056z"/>
	<path fill="none" d="M511.709,888.011c0.026-0.102,0.054-0.214,0.079-0.317C511.762,887.797,511.735,887.909,511.709,888.011z"/>
	<path fill="none" d="M491.041,916.213c0.262,0.667,0.484,1.351,0.791,1.995C491.525,917.565,491.303,916.879,491.041,916.213z"/>
	<path fill="none" d="M489.761,912.211c0.174,0.696,0.312,1.409,0.528,2.085C490.073,913.619,489.935,912.906,489.761,912.211z"/>
	<path fill="none" d="M488.563,903.385c0.027,0.803,0.026,1.619,0.092,2.405C488.59,905.004,488.591,904.188,488.563,903.385z"/>
	<path fill="none" d="M209.471,635.086c-1.377,8.083-2.476,14.694-2.654,16.505c-1.166,11.805-2.936,22.918-5.489,33.971
		c2.552-11.053,4.323-22.166,5.489-33.971C206.996,649.781,208.094,643.17,209.471,635.086z"/>
	<path fill="none" d="M488.935,907.876c0.101,0.759,0.169,1.532,0.309,2.272C489.103,909.408,489.034,908.635,488.935,907.876z"/>
	<path fill="none" d="M489.635,889.264c-0.135,0.804-0.292,1.615-0.405,2.411C489.343,890.879,489.5,890.067,489.635,889.264z"/>
	<path fill="#84BEDE" d="M190.745,130.64c6.396-0.12,12.825-0.132,19.246-0.062C203.495,129.821,197.103,129.89,190.745,130.64z"/>
	<path fill="#84BEDE" d="M78.9,159.8c-2.808,2.051-5.111,4.611-7.212,7.569c1.228-1.491,2.459-2.98,3.829-4.371
		C76.604,161.895,77.736,160.832,78.9,159.8z"/>
	<path fill="#84BEDE" d="M56.702,202.201c-0.263,1.35-0.367,2.623-0.412,3.87c0.189-1.836,0.489-3.6,0.781-5.37
		C56.933,201.207,56.798,201.711,56.702,202.201z"/>
	<path fill="#84BEDE" d="M799.097,382.208c-1.126,4.151-2.104,7.511-2.959,10.226c-0.571,1.81-1.088,3.335-1.56,4.616
		c-1.651,4.487-2.748,6.005-3.65,6.44c-0.387,0.186-0.739,0.173-1.083,0.109c-0.114-0.021-0.228-0.048-0.343-0.076
		c-0.78-0.178-1.466-0.478-2.107-0.833c-1.077-0.596-1.959-1.437-2.633-2.521c-0.096-0.153-0.212-0.281-0.3-0.444
		c-3.19-5.958-0.14-17.783,4.725-31.596v0c-12.056-24.001-79.192-9.346-157.724-35.664c-28.117-9.423-34.715-0.143-59.658,18.204
		c-32.097,29.017-41.617,48.846-47.477,56.305c-5.731,7.296-25.652,18.339-34.598,28.858c-1.367,3.558-3.443,7.127-5.919,10.705
		c-1.911,4.413-3.822,9.441-5.795,14.332c-5.414,15.338-11.332,32.949-16.343,51.79c-0.161,3.82-0.247,7.513-0.274,11.042
		c-0.026,3.529,0.008,6.892,0.084,10.052l0.178,7.953c0.291,13.331,0.652,29.841,1.65,45.992c0.25,4.038,0.538,8.053,0.877,11.991
		c0.338,3.938,0.723,7.798,1.168,11.524c0.221,1.864,0.457,3.693,0.709,5.483c0.755,5.37,1.649,10.378,2.712,14.838
		c2.594,7.661,5.643,15.271,9.032,22.839c0.001,0,0.001,0.001,0.001,0.001c1.511,2.752,3.126,5.468,4.802,8.182
		c1.677,2.715,3.417,5.429,5.181,8.18c0.324,0.505,0.649,1.016,0.974,1.523c1.474,2.302,2.952,4.62,4.402,6.977
		c0.885,1.438,1.761,2.889,2.619,4.357c1.151,1.969,2.256,3.983,3.33,6.021c2.131,4.035,4.098,8.205,5.741,12.604
		c0.617,1.655,1.193,3.341,1.717,5.06c21.008,33.9,45.224,67.271,64.439,100.822c1.354,2.362,2.484,4.643,3.466,6.871
		c6.227-0.546,12.46-0.957,18.703-1.14c41.109-1.203,81.781,13.238,121.267-2.859c5.294-2.158,9.212-0.164,11.368,3.364
		c-0.502-27.019,4.872-52.807,10.471-79.251c6.92-32.69,8.625-61.924,3.201-94.925c-5.045-30.692-6.92-57.275-0.21-87.94
		c6.604-30.18,12.506-63.017,23.743-91.705c2.927-7.47,12.871-6.086,13.693,1.853c3.069,29.653-8.155,60.94-13.516,89.916
		c-6.29,33.992-1.816,62.991,3.062,96.798c8.22,56.987-15.191,107.902-21.654,163.239c17.799,1.052,34.542,19.256,49.698,26.287
		c5.135,2.382,10.357,4.352,15.582,6.258c31.709-63.079,75.859-128.057,87.852-174.208
		C917.492,594.663,928.101,307.65,799.097,382.208z"/>
	<path fill="#84BEDE" d="M605.191,958.548c42.934,31.292,22.945,34.969,90.289,43.593c2.224,0.285,46.33,5.081,97.55,11.986
		c-7.35-10.18-13.473-25.54-16.413-48.652c-3.69-29.007,6.753-63.305,22.93-99.001c-0.34-0.133-0.67-0.283-1.012-0.413
		c-12.208-4.631-22.014-9.723-32.275-17.706c-9.084-7.068-19.113-17.054-31.4-15.758c-4.267,0.45-7.16-2.278-8.32-5.742
		c-0.766,1.729-1.906,3.296-3.5,4.483c-34.439,25.659-77.846,9.787-116.939,9.265c-9.191-0.123-18.352,0.32-27.492,1.087
		c-3.102,22.176-21.14,39.498-21.164,65.304C557.403,951.507,568.85,932.063,605.191,958.548z"/>
	<path fill="#84BEDE" d="M450.733,805.518c-1.281-18.485-1.04-36.938-0.024-55.363c-2.073,9.87-3.33,20.383-3.972,31.21
		c-0.321,5.414-0.487,10.906-0.524,16.435c-0.038,5.53,0.054,11.097,0.25,16.661C449.201,809.019,450.848,805.605,450.733,805.518z"
		/>
	<path fill="#84BEDE" d="M736.527,175.587c-27.544,8.17-50.299,8.409-77.446-4.026c-2.634-0.264-4.402-1.029-5.12-2.383
		c-20.322-9.626-40.607-20.773-59.37-24.591c-65.037-13.231-123.737,13.543-184.368,32.644
		c-57.87,18.233-117.921,22.21-177.655,15.08c-10.711-1.278-15.759,12.686-6.683,18.515c14.372,9.231,28.944,17.642,43.783,25.183
		c0.001,0.001,0.002,0.001,0.003,0.002c5.376,2.338,10.799,4.564,16.283,6.585c8.217,3.028,16.286,5.585,24.249,7.76
		c2.655,0.725,5.297,1.407,7.93,2.051c12.794,3.127,25.348,5.321,37.848,6.98c8.273,1.098,16.523,1.964,24.8,2.696
		c4.761,0.421,9.532,0.8,14.322,1.158c0.372,0.028,0.744,0.056,1.116,0.083c4.813,0.355,9.648,0.692,14.512,1.029
		c0.182,0.013,0.363,0.025,0.545,0.038c0.376,0.026,0.769,0.055,1.147,0.081c10.259,0.711,20.838,1.449,31.724,2.401
		c27.711,2.421,52.988-1.033,77.439-4.372c6.111-0.835,12.275-1.678,18.522-2.436c18.74-2.275,38.22-3.792,59.239-2.098
		c5.602,0.453,11.201,0.693,16.783,0.773c5.583,0.081,11.15,0.002,16.691-0.181c2.771-0.091,5.536-0.21,8.293-0.347
		c8.271-0.412,16.472-1,24.571-1.579c15.185-1.084,30.801-2.16,46.664-2.172c2.152,0.038,6.396-0.287,11.842-0.659
		c21.492-1.46,41.436-2.495,50.495,0.174l0,0c0.012-0.061,0.026-0.132,0.039-0.199c0,0,0-0.001,0-0.001
		c-0.992-5.069,0.235-10.445,2.597-15.946c0,0,0-0.001,0-0.001C780.651,210.784,780.959,162.407,736.527,175.587z"/>
	<path fill="#84BEDE" d="M341.806,850.96c-4.552,0.878-9.097,1.824-13.638,2.86c-26.466,6.038-52.546,13.808-79.167,17.52
		c-1.98,32.112-6.686,64.861-28.94,81.2c10.635,5.065,22.392,8.107,37.771,11.202c77.088,15.51,104.448,0.32,143.394-63.702
		c3.857-6.341,15.942-29.03,27.208-50.59c-10.932-1.352-21.866-2.7-32.875-3.18c-14.212-0.62-28.214,0.494-42.114,2.641
		c4.472,29.086,9.593,58.093,15.96,87.065C357.901,908.471,349.071,879.907,341.806,850.96z"/>
	<path fill="#84BEDE" d="M253.128,816.071c-1.782,10.115-2.468,22.13-3.079,34.865c28.028-6.314,55.492-15.421,83.521-21.879
		c0.97-0.224,1.945-0.427,2.918-0.643c-2.102-9.38-4.105-18.776-5.975-28.177c-9.174-46.19-16.101-92.592-23.864-138.551
		c-3.663-22.939-8.414-45.63-13.29-68.488c-4.647-22.888-9.971-45.729-14.286-68.862c-8.95-46.08-16.25-93.308-14.333-140.467
		c6.486,46.618,17.909,91.714,29.702,136.964c6.104,22.575,11.826,45.294,17.586,68.115c5.554,22.843,10.479,46.041,14.599,69.335
		c7.969,46.475,13.28,93.057,19.495,139.356c1.255,9.359,2.554,18.704,3.891,28.043c14.013-2.525,28.206-4.094,42.445-4.018
		c12.728,0.068,25.374,1.376,38.025,2.604c-0.173-6.268-0.318-12.555-0.438-18.772c-0.001-0.071-0.002-0.141-0.004-0.211
		c-0.069-3.629-0.129-7.233-0.183-10.794c-0.027-1.862-0.054-3.712-0.078-5.547c-0.045-3.531-0.084-7.007-0.116-10.412
		c-0.083-8.628-0.125-16.79-0.142-24.177c-0.007-2.945-0.009-5.766-0.009-8.445c0-0.001,0-0.001,0-0.002
		c0.002-17.432,0.132-28.83,0.132-28.83c-0.354-41.704,2.646-83.952,5.551-124.81c0.374-5.268,0.75-10.559,1.12-15.867
		c2.589-37.161,4.89-75.209,4.353-112.671c-0.102-7.057-0.066-14.557-0.03-22.304c0.049-10.234,0.09-20.954-0.189-31.644
		c-0.008-0.304-0.025-0.602-0.034-0.906c-0.293-10.533-0.895-21.026-2.132-30.98c-48.114-6.409-67.92-72.138-156.088-67.929
		c-37.926,1.81-97.94-37.141-122.805-22.296c13.822,17.467,23.235,42.554,28.051,53.953c39.544,93.614-45.321,209.55-73.739,308.986
		c-1.597,10.331-4.137,20.244-6.67,29.849c-0.039,0.151-0.078,0.3-0.117,0.451c-5.385,34.795-0.837,66.879,22.414,94.366
		c12.724-6.727,26.939-28.336,37.531-48.264c3.53-6.642,6.659-13.098,9.194-18.754c-0.013-0.04,0.264-1.353,0.726-3.515
		c1.241-5.838,2.431-11.312,3.591-16.578c-0.947-3.748-1.846-7.512-2.662-11.306c-2.913-13.534-4.984-27.377-5.667-41.426
		c-0.602-14.031,0.011-28.323,3.732-42.234c4.68,13.574,8.344,26.658,11.969,39.789c1.019,3.767,1.97,7.545,2.948,11.317
		c13.768-53.939,19.553-55.717,21.788-56.393c0.328-0.098,0.656-0.15,0.977-0.157c0.038-0.001,0.074,0.013,0.113,0.013
		c0.677,0.008,1.326,0.224,1.923,0.624c0.218,0.146,0.436,0.294,0.638,0.491c0.057,0.056,0.112,0.109,0.162,0.168
		c0.101,0.116,0.185,0.252,0.243,0.469c0.088,0.325,0.117,0.831,0.057,1.728c-0.039,0.598-0.119,1.369-0.247,2.375
		C219.531,627.681,252.228,820.994,253.128,816.071z M417.849,417.325c0,0.059-0.011,0.118-0.021,0.176
		c-0.03,0.02-0.058,0.03-0.097,0.03C417.77,417.472,417.81,417.394,417.849,417.325z M243.793,509.362
		c6.201,26.197,11.98,52.433,17.439,78.738c5.465,26.303,10.583,52.678,15.283,79.19c4.624,26.533,8.993,53.15,11.776,80.288
		c-10.952-24.992-19.598-50.695-27.3-76.643c-7.624-25.97-14.141-52.239-19.61-78.724c-5.473-26.484-9.931-53.182-13.23-80.051
		c-3.213-26.879-5.456-53.911-5.275-81.193C230.995,457.008,237.511,483.175,243.793,509.362z"/>
	<path fill="#84BEDE" d="M59.796,187.02c0.131,0.463,0.184,0.946,0.224,1.433c0.239-0.709,0.543-1.375,0.801-2.071
		C60.477,186.685,60.132,186.917,59.796,187.02z"/>
	<path fill="#84BEDE" d="M83.964,900.238c4.41,2.1,8.887,4.199,13.396,6.263c-2.016-2.406-3.89-4.763-5.609-7.052
		C89.295,899.659,86.734,899.911,83.964,900.238z"/>
	<path fill="#6BB3DD" d="M793.169,242.082c-0.556,1.057-1.068,2.119-1.525,3.185c-0.912,2.133-1.601,4.285-1.973,6.458
		c-0.186,1.087-0.293,2.178-0.309,3.275c6.68-0.18,13.477-0.318,20.354-0.46c46.661-0.957,94.908-1.947,137.259-15.387
		c11.264-3.575,23.146-6.987,34.639-10.286c22.566-6.481,45.865-13.171,67.193-21.784c-4.195-2.773-8.294-5.533-12.36-8.281
		c-2.078-1.405-4.161-2.813-6.216-4.206c-2.617-1.775-5.212-3.524-7.81-5.278c-2.554-1.723-5.115-3.425-7.664-5.118
		c-4.951-3.289-9.922-6.501-14.925-9.628c-20.837-13.024-42.509-24.398-68.38-31.664c-8.503-2.388-18.506-3.89-29.232-5.197
		c-3.882-0.473-7.852-0.922-11.888-1.375c-10.912-1.227-21.936-2.5-32.446-4.378c-5.117-0.914-10.085-1.998-14.867-3.284
		c-5.223-1.406-10.154-3.118-14.782-5.147c-4.232-1.856-8.263-3.918-11.831-6.445c1.934,18.1,0.306,37.258-1.274,55.828
		c-0.885,10.369-1.796,21.091-2.024,31.217v0.003c-0.109,4.455-1.649,8.789-3.882,13.029c-2.23,4.24-5.154,8.384-8.027,12.46
		C798.321,233.703,795.392,237.855,793.169,242.082z"/>
	<path fill="#6BB3DD" d="M1070.375,1009.382c5.64-5.083,20.232-18.566,26.166-40.122c6.805-24.724-3.076-40.828-8.723-66.288
		c-11.109-50.1,11.649-57.683,10.467-129.086c-0.724-43.669-9.15-35.674-12.211-92.454c-1.572-29.154,0.645-31.354,1.744-111.642
		c0.55-40.162,0.825-60.243,0-76.754c-2.479-49.65-7.578-52.954-5.233-83.732c2.096-27.509,6.928-34.818,6.977-66.287
		c0.033-20.118-1.937-20.09-1.745-43.61c0.283-34.353-18.432-55.275-24.715-64.997c-6.655,1.088-13.786,0.808-20.698,0.508
		c-8.03-0.357-16.338-0.721-24.14,1.046c-5.749,1.3-11.572,4.124-17.202,6.855c-2.954,1.432-5.955,2.888-8.965,4.127
		c4.496,0.297,9.011,0.721,13.44,1.135c21.341,2.004,41.727,3.884,54.801-8.104c-5.901,11.984-11.488,24.383-17.115,37.157
		c0.59,0.109,1.136,0.217,1.735,0.326c-1.644,0.76-3.572,1.391-5.651,1.949c-0.008,0.002-0.015,0.004-0.023,0.007
		c-1.188,0.319-2.437,0.606-3.75,0.865c-0.014,0.003-0.027,0.006-0.042,0.009c-1.311,0.258-2.678,0.489-4.101,0.692
		c-0.013,0.002-0.026,0.004-0.039,0.006c-1.425,0.203-2.898,0.381-4.421,0.532c-0.013,0.001-0.025,0.002-0.037,0.004
		c-1.528,0.152-3.095,0.281-4.708,0.386c-0.007,0.001-0.013,0.001-0.021,0.001c-1.614,0.105-3.264,0.19-4.951,0.253
		c-0.01,0.001-0.021,0.001-0.031,0.001c-3.385,0.125-6.892,0.175-10.49,0.157c-0.004,0-0.008,0-0.012,0
		c-1.795-0.009-3.605-0.031-5.435-0.069c-0.02-0.001-0.041-0.001-0.061-0.002c-12.842-0.269-26.344-1.187-38.285-2.01
		c-5.279-0.364-10.19-0.703-14.408-0.931c-3.27-0.177-6.125-0.288-8.39-0.291c-0.74-0.001-1.418,0.01-2.029,0.033
		c-21.149,0.822-13.555-0.101-35.253,3.213c-20.129,3.074-22.645,3.458-38.698,13.232c-2.294,1.396-4.863,2.984-7.799,4.799
		c-3.084,1.849-6.135,3.907-9.235,6.249c-1.55,1.171-3.112,2.414-4.695,3.737c-7.917,6.616-16.381,15.255-26.628,27.12
		c-0.718,0.831-2.769,4.824-4.924,9.28c-0.616,1.273-1.24,2.584-1.844,3.87c-2.114,4.501-3.983,8.696-4.379,9.888
		c-0.066,0.22-0.313,1.251-0.699,2.839c-0.931,3.831-1.795,7.301-2.596,10.443c-0.801,3.143-1.541,5.96-2.226,8.485
		c129.004-74.558,118.395,212.455,98.646,288.45c-11.993,46.151-56.143,111.13-87.852,174.208
		c10.573,3.856,21.162,7.424,31.081,13.44c16.307,9.89,28.276,17.112,48.054,17.53c17.354,0.367,32.354,1.991,48.358,9.15
		c17.291,7.735,33.561,17.033,51.254,23.991c30.364,11.94,70.217,20.854,93.205,45.47c5.074,5.432-0.03,13.398-6.987,12.004
		c-16.671-3.339-33.057-10.81-49.204-16.337c-16.587-5.676-33.239-11.138-49.542-17.609c-14.505-5.757-28.275-12.633-42.102-19.832
		c-17.139-8.922-31.9-9.929-50.683-10.944c-32.404-1.751-54.673-23.898-83.778-35.255c-16.177,35.696-26.62,69.994-22.93,99.001
		c2.941,23.113,9.063,38.473,16.413,48.652c42.13,5.679,89.071,12.785,121.489,19.982h0.001l2.49-0.484
		c11.078,1.336,22.291,2.674,33.568,3.606C975.366,1035.704,1031.936,1044.027,1070.375,1009.382z M1032.298,290.003l0.019,0.019
		c0.039,0.089,0.069,0.176,0.098,0.254C1032.376,290.189,1032.336,290.091,1032.298,290.003z"/>
	<path fill="#6BB3DD" d="M106.916,680.908c-5.178,19.656-10.009,38.258-6.285,59.272c0.783,4.413,1.652,8.437,2.608,12.071
		c4.142,15.748,9.906,24.166,17.193,25.067c0.707,0.087,1.425,0.105,2.152,0.057c2.18-0.144,4.439-0.88,6.746-2.1h0.001
		C106.079,747.787,101.532,715.702,106.916,680.908z"/>
	<path fill="#6BB3DD" d="M187.442,341.622c-4.816-11.399-14.229-36.486-28.051-53.953c-1.267,0.757-2.473,1.611-3.55,2.661
		c-5.343,5.204-30.381,74.025-31.844,78.826c-4.612,15.139-12.329,147.028-23.073,193.361c0.166,0.559,0.333,1.111,0.499,1.669
		c0.557,1.867,1.114,3.735,1.67,5.579c7.482,24.788,14.552,48.202,11.413,75.405c-0.211,1.836-0.523,3.63-0.803,5.438
		C142.121,551.172,226.987,435.236,187.442,341.622z"/>
	<path fill="#6BB3DD" d="M80.145,764.168c0.199-2.854,0.381-5.749,0.544-8.685c1.142-20.553,1.384-43.125,0.732-67.649
		c-5.312,44.396-13.16,94.316-11.504,137.036c0.079,2.047,0.198,4.063,0.323,6.075c0.563-2.07,1.103-4.17,1.592-6.334
		C75.778,807.177,78.548,786.997,80.145,764.168z"/>
	<path fill="#6BB3DD" d="M148.692,921.599c-1.137-1.112-2.23-2.176-3.294-3.201c-0.085-0.083-0.17-0.163-0.255-0.245
		c-2.026-1.949-3.931-3.735-5.771-5.373c-0.234-0.207-0.465-0.407-0.696-0.61c-2.498-2.189-4.892-4.081-7.304-5.708
		c-4.83-3.259-9.784-5.423-15.917-6.567c-0.413-0.077-0.826-0.155-1.25-0.223c-2.224-0.356-4.6-0.592-7.189-0.701
		c-1.534-0.064-3.131-0.094-4.822-0.073c-3.167,0.038-6.627,0.223-10.443,0.55c1.719,2.289,3.593,4.646,5.609,7.052
		c8.496,3.889,17.15,7.594,25.979,10.527c9.014,2.69,18.112,5.346,27.161,7.953C149.877,923.851,149.275,922.725,148.692,921.599
		C148.692,921.6,148.692,921.6,148.692,921.599z"/>
	<path fill="#6BB3DD" d="M161.793,883.436c6.656,1.596,30.442,48.885,30.968,49.4c9.352,9.156,17.888,15.22,27.3,19.704
		c22.254-16.339,26.961-49.088,28.94-81.2c-14.601,2.036-29.362,2.87-44.442,1.485c-9.557-0.878-9.731-14.407,0-14.998
		c15.44-0.937,30.544-3.524,45.49-6.891c0.611-12.735,1.297-24.75,3.079-34.865c-0.9,4.923-33.596-188.39-36.781-222.449
		c-0.286,2.245-0.813,5.66-1.684,10.933c-0.436,2.637-0.958,5.738-1.577,9.389c-0.311,1.826-0.645,3.789-1.006,5.901
		c-0.361,2.112-0.747,4.372-1.163,6.791c-0.496,2.898-0.986,5.756-1.445,8.451c-1.377,8.083-2.476,14.694-2.654,16.505
		c-1.166,11.805-2.936,22.918-5.489,33.971c-0.208,0.897-0.468,1.795-0.686,2.691c1.506,8.247,2.803,16.572,3.727,25.006
		c1.435,13.81,2.123,27.9,0.19,42.168c-5.669-11.389-10.133-22.768-14.184-34.277c-2.687,7.103-5.689,14.402-9.138,22.102
		c-4.831,10.787-10.543,20.405-16.772,29.255c-6.228,8.851-12.975,16.934-19.874,24.654c-2.299,2.573-4.616,5.106-6.938,7.613
		c-2.32,2.507-4.644,4.989-6.958,7.461c-19.423,20.741-37.794,40.36-49.475,68.761c9.318,0.175,16.846-1.673,24.127-3.489
		c5.816-1.454,11.289-2.817,17.004-2.901c0.014,0,0.03,0.001,0.044,0.001c2.32-0.031,4.682,0.159,7.119,0.629
		c1.261,0.243,2.547,0.578,3.856,0.987c4.161,1.301,8.58,3.472,13.45,6.918v0C150.275,881.888,155.142,881.842,161.793,883.436z"/>
	<path fill="#C7E1EE" d="M470.052,636.348c0.316,1.066,0.687,2.099,1.047,3.138c1.8,5.201,4.088,10.11,6.711,14.887
		c-3.389-7.568-6.439-15.178-9.032-22.839C469.18,633.216,469.601,634.831,470.052,636.348z"/>
	<path fill="#C7E1EE" d="M450.709,750.155c-1.016,18.425-1.256,36.879,0.024,55.363c0.115,0.087-1.532,3.501-4.271,8.943
		c0.131,3.704,0.306,7.407,0.521,11.095c0.003,0.05,0.008,0.1,0.011,0.151c3.035,0.218,6.072,0.407,9.115,0.532
		c17.788,0.727,35.503-0.783,53.199-2.972c0.922-4.211,1.486-8.117,1.407-11.497c-0.033-1.426-0.173-2.767-0.432-4.011
		c-0.686-3.284-5.03-6.961-9.232-10.516c-1.074-0.908-2.149-1.827-3.196-2.755c-2.881-2.556-5.488-5.199-6.832-8.008
		c-0.482-1.005-0.905-2.011-1.279-3.017c-0.375-1.006-0.7-2.012-0.984-3.017c-1.689-6.002-1.867-11.985-2.035-17.82
		c-0.001-0.03-0.002-0.061-0.003-0.091c-0.115-4.046-0.237-8.232-0.851-12.409c-0.079-0.538-0.395-1.665-0.86-3.153
		c-1.12-3.582-3.191-9.476-5.496-15.796c-0.742-2.035-1.502-4.093-2.264-6.144c-2.912-7.826-5.795-15.3-7.27-18.79
		c-6.006,7.196-10.625,15.845-14.124,25.51C453.757,737.552,452.06,743.717,450.709,750.155z"/>
	<path fill="#C7E1EE" d="M695.48,1002.141c-67.344-8.624-47.356-12.302-90.289-43.593c-36.341-26.485-47.788-7.04-47.747-51.554
		c0.024-25.806,18.063-43.128,21.164-65.304c-18.758,1.576-37.429,4.544-56.1,7.038c-0.132,0.416-0.263,0.827-0.396,1.245
		c-2.258,7.073-4.591,14.391-6.62,22.408c-0.116,0.465-0.367,1.515-0.72,3c-0.564,2.375-1.101,4.605-1.624,6.76
		c-0.467,1.928-0.924,3.794-1.359,5.553c-0.025,0.103-0.053,0.215-0.079,0.317c-0.004,0.02-0.009,0.038-0.013,0.057
		c-1.826,7.351-3.375,13.242-4.704,17.988c-0.103,0.372-0.206,0.733-0.306,1.091c-2.397,8.457-4.041,13.037-5.236,15.528
		c0,0.002-0.002,0.005-0.003,0.007c-0.332,0.692-0.629,1.224-0.9,1.635c-0.014,0.023-0.028,0.04-0.044,0.063
		c-0.253,0.378-0.483,0.654-0.693,0.852c-0.004,0.005-0.009,0.008-0.013,0.012c-0.436,0.407-0.79,0.5-1.112,0.584
		c-0.001,0-0.001,0-0.002,0v0c-0.381,0.099-0.777,0.087-1.146-0.016c-0.049-0.015-0.085-0.061-0.134-0.079
		c-0.289-0.105-0.572-0.233-0.787-0.464c-0.023-0.025-0.039-0.054-0.062-0.079c-0.008-0.007-0.018-0.008-0.025-0.016
		c-0.495-0.538-0.888-1.126-1.331-1.69c-0.427-0.543-0.902-1.063-1.284-1.629c-0.405-0.602-0.719-1.249-1.075-1.875
		c-0.335-0.591-0.715-1.161-1.007-1.773c-0.308-0.644-0.53-1.329-0.791-1.995c-0.251-0.639-0.543-1.259-0.753-1.918
		c-0.216-0.676-0.354-1.389-0.528-2.085c-0.173-0.688-0.383-1.357-0.518-2.063c-0.14-0.74-0.208-1.514-0.309-2.272
		c-0.092-0.696-0.22-1.375-0.279-2.085c-0.066-0.786-0.065-1.602-0.092-2.405c-0.025-0.716-0.083-1.417-0.08-2.145
		c0.004-0.781,0.067-1.586,0.102-2.38c0.035-0.778,0.04-1.544,0.104-2.333c0.06-0.756,0.171-1.532,0.255-2.298
		c0.094-0.851,0.164-1.692,0.286-2.554c0.113-0.795,0.27-1.607,0.405-2.411c0.143-0.849,0.264-1.69,0.43-2.547
		c0.159-0.821,0.356-1.655,0.534-2.482c0.186-0.859,0.352-1.711,0.558-2.577c0.172-0.73,0.374-1.468,0.56-2.201
		c0.245-0.971,0.477-1.938,0.743-2.914c0.216-0.793,0.456-1.591,0.684-2.387c0.264-0.922,0.515-1.842,0.792-2.766
		c0.187-0.621,0.39-1.242,0.58-1.863c1.889-6.119,4.012-12.248,6.096-18.207c-11.752,1.143-23.517,1.799-35.318,1.49
		c-5.411-0.141-10.8-0.529-16.178-1.03c0.21,2.091,0.413,4.199,0.635,6.258c0.757,6.987,1.579,13.77,2.408,20.252
		c0.827,6.482,1.661,12.663,2.442,18.445c0.259,1.926,0.511,3.787,0.757,5.622c0.323,2.406,0.636,4.752,0.926,6.986
		c0.04,0.31,0.067,0.641,0.106,0.952c1.359,10.86,2.05,22.784,2.766,35.41c1.783,31.432,3.731,65.746,17,90.595
		c2.413,4.518,5.2,8.723,8.428,12.541c4.843,5.727,10.678,10.583,17.733,14.318c33.886,17.937,85.684,20.303,133.368,17.257
		c15.895-1.015,31.333-2.632,45.497-4.474c18.773-2.439,40.904-8.36,64.331-14.628c40.891-10.938,86.634-23.193,122.867-18.233
		l46.137-8.975c-32.417-7.197-79.359-14.302-121.489-19.982C741.81,1007.222,697.704,1002.425,695.48,1002.141z"/>
	<path fill="#C7E1EE" d="M506.579,707.277c0.082,0.268,0.173,0.53,0.259,0.795c0.028,0.086,0.059,0.171,0.084,0.259
		c0.461,1.585,0.837,3.148,1.277,4.729c2.817,10.131,5.311,20.195,7.663,29.952c3.34,13.847,6.796,28.166,11.288,42.216
		c3.42,10.694,4.203,20.284,3.424,29.5c-0.164,1.942-0.418,3.865-0.71,5.781c14.858-2.092,29.72-4.233,44.618-5.539
		c-0.982-2.227-2.112-4.509-3.466-6.871C551.803,774.549,527.587,741.177,506.579,707.277z"/>
	<path fill="#C7E1EE" d="M442.436,945.366c-0.815-8.037-1.974-15.988-3.389-23.667c-0.189-1.03-0.385-2.05-0.584-3.069
		c-0.418-2.139-0.842-4.274-1.3-6.358c-1.121-5.092-2.079-11.814-2.9-19.682c-0.572-5.487-1.079-11.527-1.523-17.979
		c-0.223-3.227-0.43-6.557-0.624-9.965c-0.274-4.804-0.519-9.767-0.74-14.838c-0.98-0.121-1.96-0.237-2.94-0.359
		c-11.266,21.56-23.351,44.25-27.208,50.59c-38.946,64.022-66.306,79.213-143.394,63.702c-15.379-3.094-27.137-6.136-37.771-11.202
		c-9.412-4.483-17.948-10.547-27.3-19.704c-0.526-0.515-24.312-47.804-30.968-49.4c-6.651-1.595-11.518-1.549-14.973-0.292
		c0.058,0.041,0.115,0.079,0.172,0.117c0.12,0.081,0.241,0.159,0.366,0.249c0.482,0.347,0.929,0.749,1.397,1.12
		c1.116,0.887,2.198,1.833,3.242,2.84c5.75,5.547,10.479,12.723,14.987,19.935c0.48,0.768,0.962,1.537,1.438,2.302
		c4.09,6.568,7.948,12.773,12.411,17.803c1.625,1.833,3.305,3.633,5.018,5.411c0.135,0.139,0.259,0.285,0.393,0.424
		c27.803,28.703,66.536,50.495,104.069,71.613l66.478,40.112c2.678,2.059,5.305,3.831,7.906,5.471
		c3.047,1.92,6.054,3.631,8.991,4.975c1.815,0.831,3.607,1.551,5.378,2.162c3.539,1.221,6.989,2,10.342,2.335
		c3.352,0.336,6.607,0.228,9.758-0.325c11.717-2.057,22.279-10.334,31.385-24.603c9.66-15.129,13.464-38.832,13.301-64.138
		c-0.018-2.812-0.085-5.643-0.199-8.485C443.425,956.78,443.013,951.055,442.436,945.366z"/>
	<path fill="#C7E1EE" d="M524.667,1092.388c-2.351-0.929-4.668-1.877-6.962-2.816c-4.712-1.927-9.339-3.796-13.998-5.422
		c-7.669-2.677-15.426-4.652-23.811-4.831c-1.925-0.041-3.883,0.011-5.88,0.17c-0.216,0.585-0.138,1.024-0.017,1.384
		c0.015,0.048,0.02,0.112,0.037,0.157c0.502,1.277,2.119,2.929,6.018,4.879c1.699,0.849,3.809,1.752,6.483,2.71
		c1.603,0.574,3.4,1.167,5.412,1.776c2.012,0.61,4.239,1.237,6.703,1.88c1.231,0.322,2.523,0.647,3.877,0.977
		c0.894,0.218,1.6,0.389,2.135,0.581c9.027,0.898,18.179,1.304,27.166,1.254C529.403,1094.226,527.018,1093.317,524.667,1092.388z"
		/>
	<path fill="#C7E1EE" d="M150.483,923.348c-0.622-0.609-1.192-1.163-1.79-1.748c0.582,1.125,1.184,2.251,1.807,3.38
		c0.786,0.227,1.574,0.465,2.36,0.691c-0.41-0.401-0.801-0.783-1.202-1.175C151.267,924.114,150.865,923.722,150.483,923.348z"/>
	<path fill="#C7E1EE" d="M75.121,308.591c-0.06-0.386-0.093-0.781-0.157-1.166c0.199,12.52,0.681,25.185,1.235,37.639
		c0.413-6.656,0.626-13.334,0.486-20.02C76.569,319.432,75.962,313.97,75.121,308.591z"/>
	<path fill="#C7E1EE" d="M478.016,460.869c1.973-4.891,3.884-9.919,5.795-14.332c2.476-3.578,4.552-7.148,5.919-10.705
		c8.946-10.518,28.867-21.561,34.598-28.858c5.86-7.459,15.38-27.287,47.477-56.305c24.943-18.348,31.541-27.628,59.658-18.204
		c78.532,26.318,145.667,11.663,157.724,35.664c1.758-4.991,3.746-10.234,5.771-15.564c0.806-2.119,1.614-4.246,2.408-6.36
		c1.587-4.227,3.113-8.397,4.427-12.325c0.328-0.982,0.644-1.949,0.943-2.898c2.7-8.539,4.14-15.614,2.619-19.112
		c-1.1-2.524-2.434-4.661-3.973-6.461c-1.539-1.8-3.282-3.261-5.199-4.435c-0.959-0.586-1.96-1.101-3.001-1.549
		c-1.281-0.551-2.638-0.971-4.03-1.333c-5.402-1.405-11.579-1.504-18.144-0.894c-6.881,0.639-14.169,2.021-21.381,3.389
		c-11.879,2.256-23.085,4.379-32.584,3.415c-0.079-0.008-0.162-0.007-0.241-0.016c-18.393-1.974-35.772-3.214-52.1-3.733
		c-10.726-0.341-21-0.374-30.799-0.093c-19.772,0.567-37.628,2.398-53.452,5.474c-27.691,5.384-49.156,14.584-63.771,27.509
		c-6.922,6.121-12.367,13.123-16.316,20.961s-6.4,16.514-7.335,25.982l-18.735,63.325c-2.133,5.814-3.933,11.734-5.448,17.674
		c-1.515,5.939-2.744,11.898-3.733,17.786c-0.495,2.944-0.929,5.871-1.31,8.769c-1.144,8.695-1.801,17.134-2.132,25.017
		C466.684,493.817,472.602,476.207,478.016,460.869z"/>
	<path fill="#C7E1EE" d="M458.722,381.608c-0.082,1.482-0.123,2.989-0.128,4.517c-0.005,1.528,0.025,3.077,0.084,4.643
		c0.177,4.699,0.619,9.55,1.163,14.446c0.363,3.264,0.773,6.547,1.18,9.817c0.174,1.394,0.349,2.801,0.521,4.211
		c3.858-27.498,8.598-56.547,13.713-68.574C463.525,356.973,459.457,368.272,458.722,381.608z"/>
	<path fill="#C7E1EE" d="M110.791,177.908c9.095,2.583,18.276,4.12,27.777,5.711c3.018,0.505,6.062,1.015,9.124,1.565
		c9.187,1.651,18.536,3.668,27.836,7.038c14.587,5.284,28.716,11.89,42.472,18.697c4.585,2.269,9.129,4.56,13.633,6.832
		c9.282,4.679,18.735,9.434,28.358,13.902c3.207,1.489,6.432,2.945,9.677,4.356c-14.84-7.54-29.411-15.952-43.783-25.183
		c-9.076-5.829-4.029-19.793,6.683-18.515c59.734,7.13,119.785,3.153,177.655-15.08c60.631-19.102,119.331-45.875,184.368-32.644
		c18.763,3.817,39.049,14.964,59.37,24.591c0.718,1.355,2.486,2.119,5.12,2.383c27.148,12.436,49.902,12.196,77.446,4.026
		c44.431-13.179,44.124,35.198,40.798,62.243c2.604-6.063,6.577-12.275,10.5-18.393c5.359-8.356,10.423-16.247,11.578-23.036
		c0.828-4.861,1.392-14.611,1.463-25.524c0-0.002,0-0.004,0-0.006c0.023-3.605-0.008-7.338-0.1-11.063
		c-0.002-0.095-0.004-0.189-0.008-0.284c-0.382-14.969-1.765-29.765-4.686-35.668c-1.08-2.185-2.563-3.96-4.389-5.378
		c-0.913-0.709-1.912-1.329-2.989-1.867c-3.232-1.612-7.171-2.481-11.622-2.788c-8.901-0.613-19.849,1.026-31.274,3.478
		c-5.713,1.226-11.546,2.655-17.302,4.109c-1.919,0.484-3.829,0.971-5.723,1.454c-7.099,1.811-14,3.572-20.39,4.955
		c-3.196,0.692-6.262,1.289-9.163,1.751c-2.899,0.462-5.632,0.789-8.158,0.94c-17.056,1.021-33.814,0.34-50.25-0.957
		c-6.574-0.519-13.098-1.136-19.569-1.782c-3.235-0.323-6.457-0.653-9.665-0.982c-2.499-0.256-4.989-0.511-7.471-0.761
		c-34.75-3.508-68.026-6.14-103.063,1.994c-2.502,0.581-5.014,1.217-7.535,1.911c-27.89,7.682-60.847,15.962-92.293,20.121
		c-2.859,0.378-5.705,0.722-8.534,1.029c-8.486,0.919-16.815,1.5-24.855,1.647c-2.68,0.049-5.328,0.05-7.938-0.001l-38.624-1.716
		c-0.2-0.01-0.409-0.019-0.611-0.029c-8.054-0.41-16.346-0.779-24.748-1.092c-0.32-0.012-0.637-0.024-0.958-0.036
		c-26.255-0.965-53.49-1.386-77.582-0.838c-16.243,0.373-29.933,5.462-44.426,10.849c-9.78,3.634-19.897,7.393-31.079,9.72
		c-5.558,1.797-11.219,3.133-16.929,4.021c-2.855,0.444-5.722,0.776-8.594,0.997c-2.872,0.221-5.749,0.332-8.624,0.334
		C104.738,176.07,107.76,177.047,110.791,177.908z"/>
	<path fill="#C7E1EE" d="M567.729,273.925c-13.862,0.078-26.989,1.291-40.297,3.361c-17.744,2.759-35.812,7.041-56.384,12.184
		c-1.943,0.486-3.81,0.926-5.607,1.321c-3.595,0.79-6.911,1.404-10.004,1.858c-1.545,0.227-3.035,0.414-4.475,0.564
		c-4.321,0.449-8.194,0.559-11.8,0.392c-2.405-0.111-4.689-0.346-6.907-0.686c-1.11-0.17-2.202-0.366-3.286-0.587
		c-5.414-1.102-10.58-2.807-16.326-4.833c-1.149-0.405-2.321-0.823-3.523-1.252c-2.579-0.921-5.297-1.89-8.221-2.885
		c6.145,3.938,12.033,8.23,17.802,12.436c2.894,2.109,5.836,4.254,8.818,6.359c2.981,2.105,6.003,4.169,9.052,6.116
		c1.753,1.12,3.535,2.104,5.345,2.962c5.428,2.572,11.104,4.004,16.968,4.526c13.684,1.219,28.395-2.513,43.403-8.245
		c4.288-1.638,8.601-3.439,12.921-5.335c2.159-0.948,4.321-1.92,6.482-2.906c4.322-1.973,8.643-4.007,12.946-6.031
		c8.261-3.887,16.348-7.691,24.23-10.998c1.971-0.827,3.928-1.622,5.873-2.38c5.834-2.274,11.549-4.209,17.131-5.63
		C577.054,273.999,572.35,273.899,567.729,273.925z"/>
	<path fill="#C7E1EE" d="M774.761,253.995c-0.014-0.072-0.018-0.146-0.033-0.218c-0.013,0.067-0.027,0.138-0.039,0.199
		C774.71,253.983,774.739,253.988,774.761,253.995z"/>
	<path fill="#C7E1EE" d="M155.841,290.33c1.077-1.05,2.283-1.904,3.55-2.661c24.866-14.845,84.88,24.107,122.805,22.296
		c88.167-4.209,107.974,61.521,156.088,67.929c-0.475-3.827-1.035-7.58-1.705-11.225c-0.672-3.645-1.453-7.181-2.373-10.573
		c-1.801-6.652-4.333-12.078-7.373-16.694c-0.398-0.605-0.802-1.202-1.218-1.779c-1.097-1.52-2.248-2.955-3.457-4.301
		c-0.861-0.96-1.741-1.89-2.654-2.774c-5.584-5.414-12.059-9.516-18.791-13.539c-0.961-0.575-1.928-1.148-2.898-1.723
		c-1.647-0.976-3.304-1.958-4.96-2.962c-2.187-1.326-4.366-2.722-6.533-4.166c-2.758-1.838-5.491-3.773-8.139-5.949
		c-7.84-5.277-21.974-10.549-35.394-14.811c-17.255-5.479-33.33-9.288-33.33-9.288c-5.667-1.51-11.209-2.941-16.665-4.35
		c-3.255-0.841-6.487-1.676-9.702-2.517c-3.217-0.841-6.416-1.688-9.606-2.552c-5.648-1.53-11.265-3.135-16.886-4.84
		c-1.752-0.532-3.508-1.086-5.262-1.643c-4.206-1.335-8.425-2.76-12.662-4.279c-2.383-0.854-4.777-1.751-7.177-2.677
		c-5.19-2.003-10.414-4.134-15.723-6.543c-2.931-1.33-5.839-2.685-8.73-4.033c-3.622-1.689-7.21-3.354-10.79-4.953
		c-1.228-0.548-2.456-1.085-3.683-1.613c-2.202-0.948-4.403-1.87-6.608-2.73c-1.404-0.548-2.809-1.075-4.219-1.578
		c-2.495-0.891-5.006-1.691-7.53-2.41c-1.752-0.499-3.51-0.968-5.283-1.368c-10.094-2.28-20.561-2.843-31.876-0.443
		c-3.374,0.715-6.498,1.624-9.38,2.73c-2.882,1.106-5.523,2.411-7.93,3.919c-4.814,3.016-8.698,6.847-11.718,11.534
		c-1.777,2.76-3.298,5.637-4.597,8.635c-2.597,5.996-4.31,12.475-5.432,19.464c-0.281,1.747-0.524,3.527-0.735,5.338
		c-0.634,5.434-0.975,11.159-1.15,17.186c-0.349,12.054-0.028,25.317-0.028,39.879c0,0-0.013,3.459-0.105,8.917
		c-0.072,4.366-0.195,10.012-0.401,16.189c-0.103,3.089-0.225,6.31-0.374,9.57c-0.371,8.152-0.897,16.549-1.644,23.733
		c-1.471,14.164-2.945,28.08-3.998,41.976c-0.421,5.558-0.775,11.113-1.033,16.679c-1.166,25.048-0.414,50.327,4.731,77.165
		c1.828,9.541,4.372,18.817,7.039,27.881c0.21,0.712,0.414,1.432,0.624,2.141l0,0c10.744-46.333,18.461-178.222,23.073-193.361
		C125.461,364.355,150.498,295.534,155.841,290.33z"/>
	<path fill="#C7E1EE" d="M417.849,417.325c-0.039,0.069-0.079,0.147-0.118,0.206c0.039,0,0.068-0.01,0.097-0.03
		C417.838,417.443,417.849,417.384,417.849,417.325z"/>
	<path fill="#4693B5" d="M1140.151,859.363c3.431-49.388,13.128-58.39,8.722-92.454c-3.616-27.959-13.177-45.312-19.188-59.31
		c-25.658-59.751-0.815-91.446,1.745-219.796c1.719-86.237-9.723-60.499-10.467-167.463c-0.374-53.844,2.235-102.155-24.422-116.875
		c-2.694-1.488-5.495-2.478-8.319-3.16c-3.829-2.814-7.942-7.14-9.998-7.306c-1.688-0.14-3.521-0.616-5.448-1.316
		c-11.448-4.161-26.676-17.306-40.354-29.131c-4.54-3.926-8.964-7.738-13.172-11.18c-5.994-4.906-11.536-9.036-16.237-11.465
		c-23.338-12.065-50.37-22.365-82.639-31.489c-11.509-3.256-23.197-7.007-34.501-10.634c-17.497-5.615-35.59-11.422-53.674-15.61
		c-26.405-6.109-45.931-2.069-68.557,2.611c-8.096,1.675-16.472,3.408-25.625,4.75c-24.23,3.545-47.882,0.411-70.755-2.626
		c-16.52-2.19-33.647-4.429-50.931-4.251c-18.483,0.219-37.819,4.367-56.519,8.377c-8.776,1.883-17.063,3.66-25.285,5.063
		c-25.566,4.36-51.17,9.481-75.927,14.432c-40.679,8.136-82.742,16.549-125.419,21.723c-18.817,2.284-45.485,1.132-73.728-0.088
		c-15.838-0.683-32.611-1.402-49.46-1.585c-6.421-0.07-12.85-0.058-19.246,0.062c-0.002,0-0.002,0-0.004,0
		c-44.293,0.831-86.834,6.979-111.837,29.156c-0.001,0.001-0.002,0.003-0.004,0.004c-1.163,1.033-2.296,2.095-3.383,3.198
		c-1.37,1.391-2.602,2.88-3.829,4.371c-0.002,0.002-0.004,0.005-0.007,0.007c-4.64,5.633-8.249,11.984-10.858,19.005l-0.001,0
		c-0.258,0.696-0.563,1.361-0.801,2.071c0,0,0,0,0,0.001c-1.302,3.871-2.245,7.98-2.948,12.244c0,0.001,0,0.002,0,0.003
		c-0.292,1.77-0.592,3.534-0.781,5.37c0,0.003,0,0.005-0.001,0.008c-0.557,5.439-0.695,11.149-0.343,17.164
		c1.033,17.651,5.803,33.852,10.417,49.522c3.299,11.207,6.638,22.685,8.6,34.66c0.063,0.385,0.096,0.781,0.157,1.167
		c0.842,5.379,1.448,10.842,1.564,16.453c0.14,6.686-0.073,13.363-0.486,20.02c0,0.001,0,0.002,0,0.003
		c-0.983,15.846-3.222,31.56-5.438,46.903c-1.7,11.76-3.455,23.921-4.617,36.003c-4.354,45.233,0.776,90.304,5.737,133.891
		c1.854,16.29,3.771,33.133,5.181,49.822c2.294,27.179,3.733,52.547,4.36,76.146c0,0.001,0,0.001,0,0.002
		c0.652,24.525,0.409,47.096-0.732,67.649c-0.163,2.936-0.345,5.831-0.544,8.685c-1.597,22.829-4.367,43.01-8.312,60.443
		c-0.489,2.164-1.03,4.264-1.592,6.334c-3.113,11.445-7.203,21.504-10.886,30.527c-12.223,29.93-20.295,49.703,27.831,71.854
		c14.843,6.832,29.476,13.739,44.04,20.702c15.308,7.319,30.535,14.717,45.7,22.265c47.196,23.491,94.105,48.284,143.251,75.692
		c37.593,20.965,132.805,68.946,216.541,68.939c1.752,0,3.512-0.02,5.254-0.063c50.436-1.241,100.975-11.199,149.846-20.83
		c21.281-4.193,43.037-8.464,64.821-12.033c11.468-1.879,22.944-3.575,34.362-4.938c27.125-3.238,54.912-4.918,81.781-6.542
		c15.031-0.911,30.577-1.848,45.832-3.053c21.903-1.723,45.357-3.74,68.474-6.783c3.717-0.49,7.037-0.978,10.176-1.446
		c0.012-0.001,0.024-0.001,0.036-0.001c9.031-0.711,16.022-2.747,22.601-5.609c6.372-2.514,12.191-5.725,18.482-9.726
		c8.008-4.485,17.336-9.479,30.247-14.351c13.212-4.986,24.967-8.708,33.853-11.284c12.225-3.543,21.997-12.809,25.914-24.918
		c3.599-11.123,7.685-26.751,11.753-47.529C1147.467,914.444,1136.349,914.097,1140.151,859.363z M809.229,217.157
		c2.233-4.24,3.773-8.574,3.881-13.029v-0.003c0.229-10.126,1.139-20.848,2.024-31.217c1.581-18.569,3.208-37.727,1.274-55.828
		c3.569,2.527,7.6,4.59,11.832,6.445c4.627,2.029,9.559,3.741,14.782,5.147c4.782,1.287,9.75,2.37,14.867,3.284
		c10.51,1.878,21.534,3.151,32.446,4.378c4.036,0.453,8.006,0.902,11.888,1.375c10.726,1.306,20.729,2.808,29.232,5.196
		c25.872,7.267,47.543,18.641,68.38,31.664c5.003,3.127,9.974,6.339,14.925,9.628c2.549,1.694,5.11,3.395,7.664,5.118
		c2.598,1.754,5.193,3.503,7.81,5.278c2.055,1.393,4.138,2.801,6.216,4.206c4.066,2.749,8.165,5.509,12.36,8.281l0,0
		c-21.329,8.613-44.627,15.303-67.193,21.784c-11.493,3.299-23.375,6.712-34.639,10.286c-42.351,13.44-90.598,14.43-137.259,15.387
		c-6.878,0.142-13.674,0.281-20.354,0.46l0,0c0.015-1.097,0.123-2.189,0.309-3.275c0.372-2.173,1.062-4.325,1.973-6.458
		c0.456-1.066,0.969-2.128,1.525-3.185c2.223-4.227,5.152-8.379,8.033-12.465C804.076,225.541,806.999,221.397,809.229,217.157z
		 M110.342,174.603c2.872-0.221,5.738-0.553,8.594-0.997c5.71-0.888,11.37-2.224,16.929-4.021
		c11.182-2.327,21.299-6.086,31.079-9.72c14.493-5.387,28.183-10.476,44.426-10.849c24.092-0.548,51.327-0.127,77.582,0.838
		c0.321,0.012,0.638,0.024,0.958,0.036c8.402,0.313,16.694,0.682,24.748,1.092c0.201,0.01,0.41,0.019,0.611,0.029l38.624,1.716
		c2.61,0.051,5.258,0.05,7.938,0.001c8.04-0.147,16.368-0.728,24.855-1.647c2.829-0.306,5.676-0.651,8.534-1.029
		c31.447-4.159,64.404-12.439,92.293-20.121c2.522-0.694,5.033-1.33,7.535-1.911c35.036-8.134,68.313-5.502,103.063-1.994
		c2.482,0.251,4.972,0.506,7.471,0.761c3.208,0.329,6.43,0.659,9.665,0.982c6.47,0.646,12.994,1.263,19.569,1.782
		c16.436,1.297,33.195,1.978,50.25,0.957c2.526-0.151,5.259-0.478,8.158-0.94c2.9-0.462,5.967-1.059,9.163-1.751
		c6.389-1.383,13.291-3.144,20.388-4.955c1.894-0.483,3.805-0.97,5.724-1.454c5.756-1.453,11.589-2.882,17.302-4.109
		c11.425-2.452,22.373-4.091,31.274-3.478c4.451,0.307,8.39,1.176,11.622,2.788c1.077,0.537,2.076,1.157,2.989,1.867
		c1.826,1.418,3.308,3.193,4.389,5.378c2.921,5.903,4.304,20.699,4.686,35.668c0.002,0.095,0.005,0.189,0.008,0.284
		c0.092,3.725,0.123,7.458,0.1,11.063c0,0.002,0,0.004,0,0.006c-0.071,10.913-0.635,20.663-1.463,25.524
		c-1.155,6.789-6.219,14.681-11.578,23.036c-3.924,6.118-7.896,12.33-10.5,18.393c0,0,0,0.001,0,0.001
		c-2.362,5.5-3.589,10.877-2.597,15.946c0,0,0,0.001,0,0.001c0.015,0.072,0.019,0.146,0.033,0.218
		c-0.022-0.007-0.05-0.012-0.072-0.019l0,0c-9.06-2.669-29.004-1.634-50.495-0.174c-5.446,0.371-9.69,0.697-11.842,0.659
		c-15.863,0.011-31.478,1.088-46.664,2.172c-8.099,0.58-16.301,1.167-24.571,1.579c-2.757,0.137-5.521,0.256-8.293,0.347
		c-5.541,0.183-11.109,0.262-16.691,0.181c-5.583-0.081-11.181-0.32-16.783-0.773c-21.019-1.694-40.499-0.177-59.239,2.098
		c-6.247,0.758-12.411,1.6-18.522,2.436c-24.451,3.339-49.727,6.793-77.439,4.372c-10.885-0.952-21.464-1.69-31.724-2.401
		c-0.378-0.026-0.77-0.055-1.147-0.081c-0.183-0.013-0.363-0.025-0.545-0.038c-4.865-0.337-9.699-0.674-14.512-1.029
		c-0.372-0.028-0.745-0.056-1.116-0.083c-4.79-0.357-9.561-0.737-14.322-1.158c-8.277-0.732-16.527-1.598-24.8-2.696
		c-12.5-1.659-25.054-3.853-37.848-6.98c-2.633-0.643-5.275-1.326-7.93-2.051c-7.962-2.175-16.031-4.732-24.249-7.76
		c-5.484-2.021-10.907-4.247-16.283-6.585c-0.001-0.001-0.002-0.001-0.003-0.002c-3.245-1.411-6.47-2.868-9.677-4.356
		c-9.623-4.467-19.076-9.223-28.358-13.902c-4.505-2.272-9.049-4.563-13.633-6.832c-13.756-6.807-27.885-13.413-42.472-18.697
		c-9.301-3.369-18.649-5.387-27.836-7.038c-3.062-0.55-6.106-1.06-9.124-1.565c-9.501-1.59-18.682-3.128-27.777-5.711
		c-3.031-0.861-6.052-1.838-9.073-2.971c-0.001,0-0.001,0-0.001,0C104.593,174.935,107.469,174.824,110.342,174.603z
		 M564.74,279.866c-1.945,0.758-3.902,1.553-5.873,2.38c-7.882,3.307-15.969,7.111-24.23,10.998
		c-4.303,2.025-8.624,4.058-12.946,6.031c-2.161,0.986-4.323,1.958-6.482,2.906c-4.32,1.896-8.633,3.697-12.921,5.335
		c-15.008,5.732-29.72,9.463-43.403,8.245c-5.864-0.522-11.54-1.954-16.968-4.526c-1.81-0.857-3.593-1.842-5.345-2.962
		c-3.05-1.948-6.071-4.011-9.052-6.116c-2.982-2.105-5.924-4.25-8.818-6.359c-5.769-4.207-11.657-8.499-17.802-12.436
		c2.924,0.995,5.643,1.964,8.221,2.885c1.202,0.429,2.374,0.847,3.523,1.252c5.746,2.026,10.912,3.73,16.326,4.833
		c1.083,0.221,2.176,0.417,3.286,0.587c2.218,0.34,4.503,0.575,6.907,0.686c3.606,0.167,7.479,0.057,11.8-0.392
		c1.44-0.149,2.93-0.337,4.475-0.564c3.093-0.454,6.409-1.067,10.004-1.858c1.797-0.395,3.664-0.835,5.607-1.321
		c20.571-5.143,38.639-9.425,56.384-12.184c13.308-2.07,26.435-3.283,40.297-3.361c4.621-0.026,9.325,0.074,14.142,0.311
		C576.289,275.657,570.575,277.592,564.74,279.866z M475.256,350.669c-5.115,12.026-9.855,41.075-13.713,68.574c0,0,0,0.001,0,0.001
		c-0.172-1.409-0.347-2.817-0.522-4.211c-0.407-3.27-0.815-6.554-1.179-9.817c-0.544-4.896-0.986-9.747-1.163-14.446
		c-0.059-1.566-0.09-3.115-0.084-4.643c0.005-1.528,0.046-3.035,0.128-4.517c0.734-13.336,4.802-24.635,16.535-30.939
		L475.256,350.669z M477.25,725.033c0.763,2.051,1.522,4.109,2.264,6.144c2.305,6.32,4.377,12.214,5.496,15.796
		c0.465,1.488,0.781,2.614,0.86,3.153c0.614,4.177,0.737,8.362,0.851,12.409c0.001,0.03,0.002,0.061,0.003,0.092
		c0.167,5.836,0.346,11.819,2.035,17.82c0.283,1.005,0.608,2.012,0.984,3.017c0.374,1.006,0.798,2.012,1.279,3.017
		c1.344,2.809,3.951,5.452,6.832,8.008c1.046,0.928,2.122,1.847,3.196,2.755c4.202,3.555,8.545,7.232,9.232,10.516
		c0.259,1.244,0.399,2.585,0.432,4.011c0.079,3.38-0.486,7.287-1.407,11.497c-17.696,2.189-35.411,3.699-53.199,2.972
		c-3.043-0.124-6.08-0.314-9.115-0.532l0,0c-0.003-0.051-0.008-0.1-0.011-0.151c-0.215-3.688-0.391-7.391-0.521-11.095
		c-0.196-5.564-0.288-11.131-0.25-16.661c0.037-5.53,0.204-11.022,0.524-16.435c0.641-10.827,1.899-21.339,3.972-31.21
		c1.352-6.438,3.048-12.603,5.147-18.402c3.499-9.666,8.118-18.314,14.123-25.51l0.001,0
		C471.455,709.733,474.338,717.207,477.25,725.033z M152.859,925.672c-0.786-0.226-1.574-0.465-2.36-0.691
		c-9.049-2.607-18.147-5.263-27.161-7.953c-8.829-2.933-17.483-6.638-25.979-10.527c-4.509-2.064-8.986-4.163-13.396-6.263
		c-0.001,0-0.001,0-0.001,0c2.771-0.326,5.332-0.578,7.788-0.789c3.815-0.327,7.275-0.512,10.443-0.55
		c1.691-0.02,3.288,0.009,4.822,0.073c2.589,0.109,4.967,0.345,7.189,0.701c0.424,0.068,0.837,0.146,1.25,0.223
		c6.132,1.144,11.086,3.308,15.917,6.567c2.412,1.628,4.807,3.519,7.304,5.708c0.231,0.203,0.463,0.402,0.696,0.61
		c1.84,1.638,3.745,3.424,5.771,5.373c0.085,0.082,0.17,0.162,0.255,0.245c1.064,1.025,2.157,2.089,3.294,3.201c0,0,0,0,0,0.001
		c0.599,0.585,1.169,1.139,1.79,1.748c0.382,0.374,0.784,0.766,1.174,1.149C152.058,924.889,152.449,925.271,152.859,925.672
		L152.859,925.672z M443.851,970.948c0.163,25.306-3.641,49.008-13.301,64.138c-9.107,14.268-19.668,22.546-31.385,24.603
		c-3.151,0.553-6.406,0.661-9.758,0.325c-3.353-0.336-6.803-1.115-10.342-2.335c-1.771-0.61-3.564-1.331-5.378-2.162
		c-2.936-1.345-5.944-3.055-8.991-4.975c-2.602-1.64-5.228-3.412-7.906-5.471l-66.478-40.112
		c-37.533-21.118-76.265-42.91-104.069-71.613c-0.135-0.139-0.258-0.284-0.393-0.424c-1.713-1.779-3.393-3.578-5.018-5.411
		c-4.463-5.03-8.321-11.235-12.411-17.803c-0.476-0.766-0.958-1.534-1.438-2.302c-4.508-7.212-9.237-14.388-14.987-19.935
		c-1.044-1.007-2.125-1.953-3.242-2.84c-0.467-0.371-0.916-0.772-1.397-1.12c-0.125-0.09-0.245-0.168-0.366-0.249
		c-0.057-0.038-0.114-0.076-0.172-0.117v0c-4.869-3.447-9.289-5.617-13.45-6.918c-1.309-0.409-2.595-0.744-3.856-0.987
		c-2.437-0.47-4.799-0.661-7.119-0.629c-0.014,0-0.03-0.001-0.044-0.001c-5.715,0.084-11.189,1.446-17.004,2.901
		c-7.281,1.815-14.809,3.664-24.127,3.489l0,0c11.681-28.402,30.051-48.02,49.475-68.761c2.315-2.471,4.638-4.953,6.958-7.461
		c2.321-2.507,4.638-5.04,6.938-7.613c6.899-7.72,13.646-15.804,19.874-24.654c6.23-8.851,11.941-18.468,16.772-29.256
		c3.449-7.7,6.451-14.999,9.138-22.102c4.288-11.339,7.655-22.129,10.267-32.898c0.218-0.896,0.478-1.794,0.686-2.691
		c2.552-11.053,4.323-22.166,5.489-33.971c0.178-1.811,1.277-8.422,2.654-16.505c0.459-2.694,0.948-5.552,1.445-8.451
		c0.416-2.419,0.802-4.679,1.163-6.791c0.361-2.112,0.695-4.075,1.006-5.901c0.619-3.651,1.142-6.752,1.577-9.389
		c0.871-5.273,1.399-8.688,1.684-10.933c0.128-1.006,0.208-1.777,0.247-2.375c0.06-0.897,0.031-1.404-0.057-1.728
		c-0.058-0.216-0.142-0.352-0.243-0.469c-0.05-0.058-0.105-0.111-0.163-0.168c-0.201-0.196-0.419-0.345-0.637-0.491
		c-0.596-0.399-1.245-0.616-1.923-0.624c-0.038-0.001-0.074-0.014-0.113-0.013c-0.322,0.007-0.649,0.059-0.977,0.157
		c-2.235,0.676-8.02,2.454-21.788,56.393c-3.034,11.888-6.462,26.353-10.321,43.859c-1.16,5.265-2.35,10.74-3.591,16.578
		c-0.462,2.162-0.739,3.475-0.726,3.515c-2.536,5.656-5.665,12.111-9.194,18.754c-10.592,19.928-24.807,41.537-37.531,48.264h-0.001
		c-2.307,1.22-4.566,1.956-6.746,2.1c-0.727,0.048-1.445,0.031-2.153-0.057c-7.286-0.901-13.049-9.318-17.192-25.067
		c-0.957-3.634-1.827-7.659-2.608-12.072c-3.724-21.014,1.108-39.615,6.284-59.271c0.04-0.151,0.079-0.3,0.118-0.451
		c2.533-9.605,5.073-19.518,6.67-29.849c0.279-1.808,0.592-3.602,0.803-5.438c3.139-27.203-3.931-50.618-11.413-75.405
		c-0.556-1.844-1.113-3.712-1.67-5.579c-0.166-0.558-0.333-1.11-0.499-1.669l0,0c-0.21-0.709-0.414-1.43-0.624-2.141
		c-2.667-9.065-5.212-18.34-7.039-27.881c-5.145-26.839-5.897-52.117-4.731-77.165c0.258-5.566,0.612-11.121,1.033-16.679
		c1.053-13.896,2.527-27.811,3.998-41.976c0.746-7.183,1.273-15.581,1.644-23.733c0.149-3.261,0.271-6.482,0.374-9.57
		c0.206-6.177,0.328-11.822,0.401-16.189c0.092-5.458,0.105-8.917,0.105-8.917c0-14.562-0.321-27.824,0.028-39.879
		c0.175-6.027,0.517-11.752,1.15-17.186c0.211-1.811,0.454-3.591,0.735-5.338c1.122-6.989,2.835-13.468,5.432-19.464
		c1.299-2.998,2.819-5.875,4.597-8.635c3.021-4.687,6.904-8.517,11.718-11.534c2.408-1.508,5.049-2.813,7.93-3.919
		c2.883-1.106,6.006-2.015,9.38-2.73c11.314-2.401,21.782-1.837,31.876,0.443c1.773,0.4,3.531,0.869,5.283,1.368
		c2.524,0.72,5.034,1.519,7.53,2.41c1.41,0.503,2.815,1.03,4.219,1.578c2.205,0.861,4.407,1.783,6.608,2.73
		c1.227,0.528,2.455,1.065,3.683,1.613c3.58,1.598,7.169,3.264,10.79,4.952c2.892,1.348,5.799,2.703,8.73,4.033
		c5.309,2.409,10.533,4.541,15.723,6.543c2.4,0.926,4.795,1.823,7.177,2.677c4.237,1.52,8.456,2.944,12.662,4.279
		c1.754,0.557,3.51,1.111,5.262,1.643c5.621,1.705,11.239,3.31,16.886,4.84c3.19,0.864,6.389,1.711,9.606,2.552
		c3.215,0.841,6.447,1.676,9.702,2.517c5.456,1.409,10.998,2.84,16.665,4.35c0,0,16.075,3.809,33.33,9.288
		c13.42,4.262,27.555,9.534,35.394,14.811c2.649,2.175,5.381,4.111,8.139,5.949c2.167,1.444,4.346,2.841,6.533,4.166
		c1.656,1.004,3.313,1.986,4.96,2.962c0.97,0.575,1.937,1.148,2.898,1.723c6.732,4.023,13.207,8.125,18.791,13.539
		c0.913,0.884,1.793,1.815,2.654,2.774c1.209,1.346,2.361,2.781,3.457,4.301c0.416,0.577,0.82,1.174,1.218,1.779
		c3.04,4.615,5.572,10.042,7.373,16.693c0.919,3.392,1.701,6.928,2.373,10.573c0.67,3.645,1.23,7.398,1.705,11.225
		c1.237,9.953,1.839,20.447,2.132,30.98c0.009,0.303,0.026,0.602,0.034,0.906c0.279,10.69,0.239,21.41,0.189,31.644
		c-0.036,7.746-0.072,15.247,0.03,22.304c0.537,37.462-1.763,75.51-4.353,112.671c-0.37,5.309-0.745,10.599-1.12,15.867
		c-2.905,40.858-5.905,83.105-5.551,124.81c0,0-0.13,11.398-0.132,28.83c0,0.001,0,0.001,0,0.002c0,2.679,0.002,5.501,0.009,8.445
		c0.018,7.387,0.059,15.549,0.142,24.177c0.032,3.405,0.071,6.881,0.116,10.412c0.024,1.835,0.05,3.685,0.078,5.547
		c0.054,3.561,0.114,7.165,0.183,10.794c0.002,0.071,0.003,0.141,0.004,0.211c0.119,6.217,0.265,12.505,0.438,18.772
		c-12.652-1.228-25.297-2.536-38.025-2.604c-14.239-0.076-28.431,1.493-42.445,4.018c1.11,7.748,2.241,15.492,3.432,23.228
		c13.901-2.148,27.902-3.261,42.114-2.641c11.009,0.48,21.943,1.828,32.875,3.18c0.98,0.121,1.96,0.238,2.94,0.359
		c0.221,5.071,0.466,10.034,0.74,14.838c0.194,3.408,0.401,6.739,0.624,9.965c0.444,6.453,0.951,12.492,1.523,17.979
		c0.821,7.867,1.78,14.59,2.9,19.682c0.459,2.084,0.882,4.219,1.3,6.358c0.199,1.019,0.395,2.039,0.584,3.069
		c1.415,7.679,2.574,15.63,3.389,23.667c0.577,5.689,0.989,11.413,1.216,17.097C443.766,965.305,443.834,968.136,443.851,970.948z
		 M504.665,1093.833c-0.535-0.192-1.241-0.363-2.135-0.581c-1.354-0.329-2.645-0.655-3.877-0.977
		c-2.465-0.643-4.692-1.27-6.703-1.88c-2.012-0.61-3.809-1.202-5.412-1.776c-2.675-0.958-4.785-1.861-6.483-2.71
		c-3.9-1.95-5.516-3.602-6.018-4.879c-0.018-0.045-0.022-0.109-0.037-0.157c-0.12-0.36-0.198-0.799,0.017-1.384
		c1.997-0.158,3.955-0.211,5.88-0.17c8.385,0.179,16.142,2.154,23.811,4.831c4.659,1.626,9.286,3.494,13.998,5.422
		c2.294,0.939,4.611,1.887,6.962,2.816c2.351,0.929,4.736,1.838,7.164,2.699l0,0
		C522.845,1095.137,513.692,1094.731,504.665,1093.833z M914.52,1034.108h-0.001l-46.137,8.975
		c-36.233-4.961-81.976,7.294-122.867,18.233c-23.428,6.268-45.558,12.189-64.331,14.628c-14.164,1.842-29.603,3.458-45.497,4.474
		c-47.684,3.046-99.482,0.68-133.368-17.257c-7.055-3.735-12.89-8.591-17.733-14.318c-3.229-3.818-6.015-8.023-8.428-12.541
		c-13.269-24.849-15.217-59.163-17.001-90.595c-0.715-12.626-1.405-24.551-2.765-35.41c-0.039-0.311-0.066-0.643-0.106-0.952
		c-0.29-2.234-0.603-4.58-0.926-6.986c-0.246-1.835-0.498-3.696-0.757-5.622c-0.78-5.782-1.614-11.963-2.442-18.445
		c-0.828-6.482-1.65-13.265-2.408-20.252c-0.222-2.058-0.425-4.167-0.635-6.258c5.378,0.501,10.767,0.888,16.178,1.03
		c11.8,0.309,23.566-0.347,35.318-1.49c-2.084,5.96-4.207,12.088-6.096,18.207c-0.19,0.621-0.393,1.242-0.58,1.863
		c-0.277,0.924-0.529,1.844-0.792,2.766c-0.228,0.796-0.468,1.594-0.684,2.387c-0.266,0.976-0.498,1.943-0.743,2.914
		c-0.186,0.733-0.389,1.471-0.56,2.201c-0.206,0.865-0.372,1.718-0.558,2.577c-0.178,0.827-0.375,1.661-0.534,2.482
		c-0.166,0.857-0.287,1.698-0.43,2.547c-0.135,0.804-0.292,1.615-0.405,2.411c-0.121,0.862-0.192,1.703-0.286,2.554
		c-0.085,0.766-0.195,1.542-0.255,2.298c-0.063,0.79-0.069,1.555-0.104,2.333c-0.035,0.794-0.097,1.6-0.102,2.38
		c-0.003,0.728,0.055,1.43,0.08,2.145c0.027,0.803,0.026,1.619,0.092,2.405c0.059,0.71,0.187,1.39,0.279,2.085
		c0.1,0.759,0.169,1.532,0.309,2.272c0.135,0.705,0.345,1.375,0.518,2.063c0.174,0.695,0.312,1.408,0.528,2.085
		c0.21,0.659,0.502,1.278,0.753,1.918c0.262,0.666,0.484,1.351,0.791,1.995c0.292,0.612,0.672,1.182,1.007,1.773
		c0.356,0.627,0.67,1.273,1.075,1.875c0.382,0.566,0.857,1.086,1.284,1.629c0.449,0.57,0.855,1.162,1.356,1.706
		c0.023,0.025,0.039,0.054,0.062,0.079c0.215,0.231,0.498,0.359,0.787,0.464c0.049,0.018,0.083,0.065,0.134,0.079
		c0.369,0.103,0.765,0.115,1.146,0.016v0c0.324-0.084,0.677-0.177,1.114-0.584c0.004-0.005,0.009-0.008,0.013-0.012
		c0.21-0.198,0.44-0.474,0.693-0.852c0.015-0.022,0.03-0.04,0.044-0.063c0.27-0.411,0.568-0.944,0.9-1.635
		c0.001-0.003,0.003-0.005,0.003-0.007c1.195-2.492,2.839-7.071,5.236-15.528c0.101-0.358,0.204-0.719,0.306-1.091
		c1.329-4.746,2.878-10.637,4.704-17.988c0.004-0.02,0.009-0.037,0.013-0.057c0.026-0.102,0.054-0.214,0.079-0.317
		c0.436-1.76,0.892-3.626,1.359-5.553c0.523-2.155,1.06-4.384,1.624-6.76c0.354-1.485,0.604-2.535,0.72-3
		c2.029-8.017,4.362-15.335,6.62-22.408c0.133-0.418,0.264-0.828,0.396-1.244l0,0c18.671-2.494,37.342-5.462,56.1-7.038
		c9.141-0.768,18.301-1.21,27.492-1.087c39.094,0.522,82.5,16.393,116.939-9.265c1.594-1.188,2.734-2.754,3.5-4.483
		c1.16,3.464,4.053,6.192,8.32,5.742c12.286-1.296,22.316,8.69,31.4,15.758c10.261,7.984,20.067,13.076,32.275,17.706
		c0.343,0.13,0.672,0.28,1.012,0.413c29.105,11.357,51.373,33.503,83.778,35.255c18.783,1.015,33.544,2.021,50.683,10.944
		c13.827,7.199,27.597,14.075,42.102,19.832c16.303,6.471,32.955,11.933,49.542,17.609c16.147,5.526,32.534,12.998,49.204,16.337
		c6.957,1.393,12.061-6.572,6.987-12.004c-22.988-24.615-62.841-33.529-93.205-45.47c-17.693-6.957-33.963-16.256-51.254-23.991
		c-16.004-7.159-31.005-8.783-48.358-9.15c-19.778-0.418-31.747-7.641-48.054-17.53c-9.919-6.016-20.508-9.583-31.081-13.44
		c-5.225-1.905-10.446-3.875-15.582-6.258c-15.156-7.032-31.899-25.236-49.698-26.287c6.463-55.336,29.874-106.252,21.654-163.239
		c-4.878-33.807-9.352-62.807-3.062-96.798c5.362-28.976,16.585-60.263,13.516-89.916c-0.822-7.94-10.766-9.323-13.693-1.853
		c-11.237,28.687-17.139,61.524-23.743,91.705c-6.71,30.665-4.835,57.248,0.21,87.94c5.424,33.001,3.719,62.234-3.201,94.925
		c-5.598,26.444-10.973,52.232-10.471,79.251c-2.156-3.528-6.074-5.522-11.368-3.364c-39.485,16.097-80.157,1.656-121.267,2.859
		c-6.243,0.183-12.476,0.594-18.703,1.14c-14.899,1.307-29.76,3.448-44.618,5.539h-0.001c0.293-1.916,0.547-3.839,0.711-5.781
		c0.778-9.216-0.005-18.806-3.424-29.5c-4.492-14.051-7.948-28.369-11.288-42.216c-2.352-9.757-4.846-19.821-7.663-29.952
		c-0.44-1.581-0.816-3.144-1.277-4.729c-0.025-0.088-0.056-0.173-0.084-0.259c-0.086-0.265-0.177-0.527-0.259-0.795
		c-0.524-1.719-1.1-3.405-1.717-5.06c-1.644-4.399-3.611-8.569-5.741-12.604c-1.075-2.037-2.179-4.051-3.33-6.021
		c-0.858-1.468-1.734-2.919-2.619-4.357c-1.45-2.357-2.928-4.674-4.402-6.977c-0.325-0.507-0.65-1.018-0.974-1.523
		c-1.765-2.751-3.504-5.465-5.181-8.18c-1.677-2.715-3.291-5.43-4.802-8.182c0,0,0-0.001-0.001-0.001
		c-2.623-4.777-4.911-9.686-6.711-14.887c-0.36-1.039-0.731-2.072-1.047-3.138c-0.451-1.516-0.872-3.131-1.274-4.814
		c-1.063-4.46-1.957-9.468-2.712-14.838c-0.252-1.79-0.488-3.62-0.709-5.483c-0.444-3.727-0.83-7.587-1.168-11.524
		c-0.338-3.938-0.627-7.953-0.877-11.991c-0.998-16.151-1.359-32.662-1.65-45.992l-0.178-7.953
		c-0.077-3.16-0.111-6.523-0.084-10.052c0.026-3.528,0.113-7.222,0.273-11.042c0.332-7.884,0.989-16.323,2.133-25.017
		c0.381-2.898,0.815-5.825,1.31-8.769c0.989-5.888,2.218-11.847,3.733-17.786c1.515-5.94,3.315-11.86,5.448-17.674l18.734-63.325
		c0.936-9.468,3.387-18.143,7.336-25.981c3.949-7.838,9.394-14.84,16.316-20.961c14.615-12.925,36.081-22.126,63.771-27.509
		c15.823-3.077,33.679-4.907,53.452-5.474c9.799-0.281,20.073-0.248,30.799,0.093c16.328,0.52,33.707,1.759,52.1,3.733
		c0.079,0.008,0.162,0.008,0.241,0.016c9.499,0.963,20.704-1.16,32.584-3.415c7.212-1.368,14.5-2.75,21.381-3.389
		c6.564-0.609,12.742-0.511,18.144,0.894c1.392,0.362,2.749,0.782,4.03,1.333c1.041,0.448,2.042,0.963,3.001,1.549
		c1.916,1.173,3.66,2.635,5.199,4.435c1.539,1.8,2.873,3.937,3.973,6.461c1.521,3.498,0.081,10.573-2.619,19.112
		c-0.3,0.949-0.615,1.916-0.943,2.898c-1.314,3.928-2.84,8.098-4.427,12.325c-0.794,2.114-1.602,4.241-2.408,6.36
		c-2.025,5.33-4.013,10.573-5.771,15.564v0c-4.865,13.813-7.915,25.638-4.725,31.596c0.088,0.163,0.204,0.291,0.3,0.444
		c0.675,1.084,1.556,1.925,2.633,2.521c0.641,0.355,1.326,0.655,2.107,0.833c0.115,0.027,0.229,0.054,0.343,0.076
		c0.345,0.064,0.696,0.077,1.083-0.109c0.902-0.434,1.998-1.953,3.65-6.44c0.472-1.282,0.988-2.806,1.56-4.616
		c0.856-2.715,1.833-6.075,2.959-10.226c0.685-2.525,1.425-5.341,2.226-8.485c0.801-3.143,1.665-6.613,2.596-10.444
		c0.385-1.587,0.634-2.619,0.699-2.838c0.395-1.192,2.264-5.387,4.379-9.888c0.604-1.286,1.228-2.597,1.844-3.87
		c2.155-4.456,4.206-8.448,4.924-9.28c10.247-11.865,18.711-20.504,26.628-27.12c1.584-1.323,3.145-2.565,4.695-3.737
		c3.099-2.342,6.151-4.4,9.235-6.249c2.936-1.815,5.505-3.403,7.799-4.799c16.053-9.774,18.568-10.158,38.698-13.232
		c21.697-3.314,14.103-2.391,35.253-3.213c0.611-0.024,1.289-0.034,2.029-0.033c2.266,0.003,5.12,0.114,8.39,0.291
		c4.217,0.228,9.13,0.566,14.408,0.931c11.944,0.823,25.449,1.747,38.285,2.01c0.021,0.001,0.042,0.001,0.061,0.002
		c1.828,0.037,3.641,0.061,5.435,0.069c0.004,0,0.008,0,0.012,0c3.595,0.016,7.108-0.03,10.49-0.157c0.01,0,0.021-0.001,0.031-0.001
		c1.685-0.063,3.338-0.147,4.951-0.253c0.008,0,0.014-0.001,0.021-0.001c1.611-0.106,3.183-0.234,4.708-0.386
		c0.012-0.001,0.024-0.003,0.037-0.004c1.521-0.152,2.997-0.329,4.421-0.532c0.013-0.002,0.026-0.004,0.039-0.006
		c1.421-0.203,2.791-0.433,4.101-0.692c0.014-0.003,0.027-0.006,0.042-0.009c1.31-0.259,2.562-0.547,3.75-0.865
		c0.008-0.002,0.015-0.004,0.023-0.007c1.191-0.32,2.318-0.672,3.371-1.057c0.182-0.413,0.363-0.806,0.545-1.218
		c5.626-12.774,11.214-25.173,17.115-37.157c-13.074,11.988-33.46,10.109-54.801,8.104c-4.429-0.414-8.944-0.838-13.44-1.135
		c3.01-1.239,6.011-2.695,8.965-4.127c5.631-2.731,11.453-5.555,17.202-6.855c7.802-1.768,16.11-1.403,24.14-1.046
		c6.913,0.3,14.043,0.58,20.698-0.508c6.283,9.722,24.998,30.644,24.715,64.997c-0.193,23.52,1.777,23.492,1.745,43.61
		c-0.049,31.469-4.881,38.778-6.977,66.287c-2.345,30.778,2.754,34.082,5.233,83.732c0.825,16.511,0.55,36.592,0,76.754
		c-1.099,80.288-3.315,82.488-1.744,111.642c3.061,56.78,11.487,48.784,12.211,92.454c1.182,71.403-21.576,78.986-10.467,129.086
		c5.646,25.46,15.528,41.564,8.723,66.288c-5.934,21.555-20.526,35.038-26.166,40.122c-38.439,34.645-95.009,26.322-119.797,27.848
		c-11.277-0.932-22.49-2.27-33.568-3.606L914.52,1034.108z"/>
	<path fill="#4693B5" d="M341.806,850.96c-1.88-7.492-3.63-15.014-5.318-22.546c-0.973,0.216-1.948,0.419-2.918,0.643
		c-28.03,6.458-55.494,15.565-83.521,21.879c-14.946,3.367-30.049,5.954-45.49,6.891c-9.731,0.59-9.557,14.12,0,14.998
		c15.08,1.385,29.841,0.551,44.442-1.485c26.62-3.713,52.701-11.482,79.167-17.52C332.709,852.784,337.254,851.838,341.806,850.96z"
		/>
	<path fill="#C7E1EE" d="M326.627,658.283c-4.12-23.294-9.044-46.492-14.599-69.335c-5.76-22.821-11.482-45.541-17.586-68.115
		c-11.793-45.25-23.216-90.346-29.702-136.964c-1.917,47.159,5.382,94.387,14.333,140.467c4.314,23.133,9.639,45.974,14.286,68.862
		c4.876,22.858,9.627,45.549,13.29,68.488c7.763,45.959,14.691,92.361,23.864,138.551c1.869,9.401,3.872,18.797,5.975,28.177
		c1.688,7.532,3.438,15.054,5.318,22.546c7.265,28.947,16.095,57.511,27.6,85.015c-6.367-28.972-11.488-57.979-15.96-87.065
		c-1.191-7.736-2.322-15.48-3.432-23.228c-1.336-9.339-2.635-18.684-3.891-28.043C339.907,751.34,334.596,704.759,326.627,658.283z"
		/>
	<path fill="#C7E1EE" d="M241.381,592.212c5.469,26.485,11.986,52.754,19.61,78.724c7.702,25.948,16.348,51.651,27.3,76.643
		c-2.783-27.138-7.152-53.756-11.776-80.288c-4.7-26.512-9.818-52.887-15.283-79.19c-5.459-26.305-11.238-52.541-17.439-78.738
		c-6.282-26.187-12.798-52.354-20.917-78.394c-0.181,27.282,2.062,54.314,5.275,81.193
		C231.45,539.029,235.908,565.728,241.381,592.212z"/>
	<path fill="#C7E1EE" d="M175.776,593.198c-3.721,13.911-4.334,28.203-3.732,42.234c0.683,14.049,2.754,27.892,5.667,41.426
		c0.815,3.794,1.715,7.558,2.662,11.306c3.859-17.506,7.287-31.971,10.321-43.859c-0.978-3.772-1.93-7.55-2.948-11.317
		C184.12,619.856,180.455,606.772,175.776,593.198z"/>
	<path fill="#C7E1EE" d="M204.559,755.429c1.933-14.269,1.244-28.359-0.19-42.168c-0.924-8.435-2.221-16.759-3.727-25.006v0
		c-2.612,10.769-5.979,21.559-10.267,32.898l0,0C194.426,732.661,198.89,744.04,204.559,755.429z"/>
</g>
</svg>
